<svg width="209" height="212" viewBox="0 0 209 212" fill="none" xmlns="http://www.w3.org/2000/svg">
<rect width="209" height="212" fill="#F5F4EF"/>
<path d="M109.369 98.0984C107.728 99.9674 105.514 101.043 103.287 101.043C101.328 101.043 99.5134 100.213 98.1794 98.7065L78.016 75.7268L76.1901 77.8054L83.155 85.7373L60.5799 111.451C59.9139 112.21 59.3801 113.087 58.98 114.056C58.355 115.562 58.0978 117.222 58.2209 118.87C52.2609 112.012 48.99 103.307 49 94.348C49.0101 85.785 52.0049 77.6776 57.4317 71.5326C62.8559 65.3886 70.0559 62 77.7076 62C82.2307 62 86.5385 63.1571 90.5185 65.4226C92.1386 66.334 93.7174 67.456 95.2053 68.7748L95.9133 69.4058L109.913 85.3407C112.836 88.6939 112.6 94.4164 109.369 98.0976L109.369 98.0984Z" fill="#E99140"/>
<path d="M93.4621 97.4785L70.8887 123.192C69.8327 124.383 68.4056 125.049 66.8998 125.049C65.2888 125.049 63.7507 124.313 62.5817 122.982C61.4128 121.652 60.7676 119.911 60.7676 118.064C60.7676 116.336 61.3395 114.723 62.3975 113.52L84.9709 87.8069L93.4621 97.4785Z" fill="#E99140"/>
<path d="M149 94.3482C149.009 103.367 145.697 112.117 139.666 118.997C136.077 123.074 131.943 127.783 127.717 132.596L103.328 160.143C102.272 161.345 100.856 162 99.3377 162C97.7166 162 96.1788 161.264 95.0196 159.932C93.8816 158.634 93.2455 156.93 93.2146 155.131C93.1837 153.368 93.7576 151.708 94.8357 150.469L118.547 123.449L116.334 120.925L92.6203 147.948C91.5633 149.14 90.1382 149.804 88.6304 149.804C87.0204 149.804 85.4823 149.068 84.3114 147.738C83.1434 146.406 82.4972 144.665 82.4972 142.82C82.4972 141.09 83.0711 139.477 84.1271 138.274L107.839 111.252L105.318 108.379L81.5926 135.388C80.5366 136.592 79.1206 137.246 77.6037 137.246C75.9836 137.246 74.4435 136.51 73.2847 135.181C72.1467 133.882 71.5106 132.177 71.4797 130.378C71.4377 128.615 72.0226 126.955 73.0997 125.715L95.674 100.004L96.3608 100.786C98.1867 102.855 100.648 103.988 103.284 103.988C106.167 103.988 109.05 102.597 111.193 100.18C115.418 95.3423 115.664 87.7607 111.725 83.2759L100.732 70.7514C106.064 65.0986 112.976 62.0015 120.291 62.0015C127.931 62.0015 135.132 65.39 140.567 71.5351C145.994 77.6777 148.99 85.7851 148.999 94.3486L149 94.3482Z" fill="#E99140"/>
</svg>
