<svg width="101" height="100" viewBox="0 0 101 100" fill="none" xmlns="http://www.w3.org/2000/svg">
<g opacity="0.8">
<path d="M60.3695 36.0984C58.7276 37.9674 56.5143 39.0427 54.2875 39.0427C52.3284 39.0427 50.5134 38.2125 49.1794 36.7065L29.016 13.7268L27.1901 15.8054L34.155 23.7373L11.5799 49.4506C10.9139 50.2103 10.3801 51.0871 9.98 52.0556C9.355 53.5624 9.09783 55.222 9.22088 56.8701C3.26087 50.0119 -0.00997717 41.3074 2.28622e-05 32.348C0.0101137 23.785 3.00495 15.6776 8.43171 9.53261C13.8559 3.38857 21.0559 0 28.7076 0C33.2307 0 37.5385 1.15715 41.5185 3.42265C43.1386 4.33401 44.7174 5.45598 46.2053 6.77477L46.9133 7.40582L60.9125 23.3407C63.8357 26.6939 63.5997 32.4164 60.3689 36.0976L60.3695 36.0984Z" fill="black"/>
<path d="M44.4621 35.4786L21.8887 61.1919C20.8327 62.3832 19.4056 63.0494 17.8998 63.0494C16.2888 63.0494 14.7507 62.3134 13.5817 60.982C12.4128 59.6516 11.7676 57.9112 11.7676 56.0637C11.7676 54.3359 12.3395 52.7231 13.3975 51.5203L35.9709 25.807L44.4621 35.4786Z" fill="#E6B945"/>
<path d="M100.523 32.3467C100.532 41.3654 97.2196 50.1153 91.1885 56.9959C87.5996 61.0726 83.4655 65.7811 79.2393 70.5948L54.85 98.141C53.794 99.3438 52.378 99.9986 50.8601 99.9986C49.239 99.9986 47.7013 99.2626 46.5421 97.93C45.4041 96.6327 44.768 94.9286 44.7371 93.1292C44.7062 91.3662 45.2801 89.7066 46.3582 88.4671L70.0691 61.4478L67.8562 58.9235L44.1428 85.9467C43.0858 87.138 41.6607 87.8021 40.1528 87.8021C38.5428 87.8021 37.0047 87.0661 35.8338 85.7368C34.6658 84.4043 34.0196 82.6639 34.0196 80.8186C34.0196 79.0885 34.5935 77.4756 35.6496 76.2728L59.3613 49.2506L57 47L33.1151 73.3868C32.0591 74.5907 30.6431 75.2443 29.1261 75.2443C27.506 75.2443 25.966 74.5083 24.8071 73.1791C23.6691 71.8806 23.033 70.1754 23.0021 68.3768C22.9601 66.6138 23.5451 64.9531 24.6222 63.7136L47.1964 38.0022L47.8833 38.7845C49.7091 40.8531 52.1704 41.9861 54.8061 41.9861C57.6893 41.9861 60.5721 40.5954 62.715 38.1783C66.9409 33.3408 67.186 25.7592 63.2479 21.2743L52.2545 8.74992C57.5865 3.09708 64.4987 0 71.8137 0C79.4538 0 86.6546 3.38848 92.0896 9.53356C97.5167 15.6762 100.512 23.7836 100.521 32.3471L100.523 32.3467Z" fill="#B41B1B"/>
<path d="M57 47L33.1211 73.3849C32.0651 74.5762 30.638 75.2424 29.1322 75.2424C27.5212 75.2424 25.9831 74.5064 24.8142 73.175C23.6453 71.8446 23 70.1042 23 68.2567C23 66.5289 23.5719 64.9161 24.6299 63.7133L47.2033 38L57 47Z" fill="#E6B945"/>
</g>
</svg>
