<svg width="600" height="230" viewBox="0 0 600 230" fill="none" xmlns="http://www.w3.org/2000/svg">
<rect width="600" height="230" fill="#99C5E8"/>
<path d="M222.883 114.6C226.883 115.867 230.016 118 232.283 121C234.549 123.933 235.683 127.567 235.683 131.9C235.683 138.033 233.283 142.767 228.483 146.1C223.749 149.367 216.816 151 207.683 151H171.483V81H205.683C214.216 81 220.749 82.6333 225.283 85.9C229.883 89.1667 232.183 93.6 232.183 99.2C232.183 102.6 231.349 105.633 229.683 108.3C228.083 110.967 225.816 113.067 222.883 114.6ZM187.583 93.2V109.7H203.683C207.683 109.7 210.716 109 212.783 107.6C214.849 106.2 215.883 104.133 215.883 101.4C215.883 98.6667 214.849 96.6333 212.783 95.3C210.716 93.9 207.683 93.2 203.683 93.2H187.583ZM206.483 138.8C210.749 138.8 213.949 138.1 216.083 136.7C218.283 135.3 219.383 133.133 219.383 130.2C219.383 124.4 215.083 121.5 206.483 121.5H187.583V138.8H206.483ZM299.547 124.3C299.547 124.5 299.447 125.9 299.247 128.5H258.547C259.281 131.833 261.014 134.467 263.747 136.4C266.481 138.333 269.881 139.3 273.947 139.3C276.747 139.3 279.214 138.9 281.347 138.1C283.547 137.233 285.581 135.9 287.447 134.1L295.747 143.1C290.681 148.9 283.281 151.8 273.547 151.8C267.481 151.8 262.114 150.633 257.447 148.3C252.781 145.9 249.181 142.6 246.647 138.4C244.114 134.2 242.847 129.433 242.847 124.1C242.847 118.833 244.081 114.1 246.547 109.9C249.081 105.633 252.514 102.333 256.847 100C261.247 97.6 266.147 96.4 271.547 96.4C276.814 96.4 281.581 97.5333 285.847 99.8C290.114 102.067 293.447 105.333 295.847 109.6C298.314 113.8 299.547 118.7 299.547 124.3ZM271.647 108.2C268.114 108.2 265.147 109.2 262.747 111.2C260.347 113.2 258.881 115.933 258.347 119.4H284.847C284.314 116 282.847 113.3 280.447 111.3C278.047 109.233 275.114 108.2 271.647 108.2ZM375.233 81V151H359.033V122.3H327.233V151H311.033V81H327.233V108.6H359.033V81H375.233ZM443.395 124.3C443.395 124.5 443.295 125.9 443.095 128.5H402.395C403.128 131.833 404.862 134.467 407.595 136.4C410.328 138.333 413.728 139.3 417.795 139.3C420.595 139.3 423.062 138.9 425.195 138.1C427.395 137.233 429.428 135.9 431.295 134.1L439.595 143.1C434.528 148.9 427.128 151.8 417.395 151.8C411.328 151.8 405.962 150.633 401.295 148.3C396.628 145.9 393.028 142.6 390.495 138.4C387.962 134.2 386.695 129.433 386.695 124.1C386.695 118.833 387.928 114.1 390.395 109.9C392.928 105.633 396.362 102.333 400.695 100C405.095 97.6 409.995 96.4 415.395 96.4C420.662 96.4 425.428 97.5333 429.695 99.8C433.962 102.067 437.295 105.333 439.695 109.6C442.162 113.8 443.395 118.7 443.395 124.3ZM415.495 108.2C411.962 108.2 408.995 109.2 406.595 111.2C404.195 113.2 402.728 115.933 402.195 119.4H428.695C428.162 116 426.695 113.3 424.295 111.3C421.895 109.233 418.962 108.2 415.495 108.2ZM453.781 76.8H469.381V151H453.781V76.8ZM515.659 96.4C520.659 96.4 525.193 97.5667 529.259 99.9C533.393 102.167 536.626 105.4 538.959 109.6C541.293 113.733 542.459 118.567 542.459 124.1C542.459 129.633 541.293 134.5 538.959 138.7C536.626 142.833 533.393 146.067 529.259 148.4C525.193 150.667 520.659 151.8 515.659 151.8C508.793 151.8 503.393 149.633 499.459 145.3V170.4H483.859V97.2H498.759V103.4C502.626 98.7333 508.259 96.4 515.659 96.4ZM512.959 139C516.959 139 520.226 137.667 522.759 135C525.359 132.267 526.659 128.633 526.659 124.1C526.659 119.567 525.359 115.967 522.759 113.3C520.226 110.567 516.959 109.2 512.959 109.2C508.959 109.2 505.659 110.567 503.059 113.3C500.526 115.967 499.259 119.567 499.259 124.1C499.259 128.633 500.526 132.267 503.059 135C505.659 137.667 508.959 139 512.959 139Z" fill="#F5F4EF"/>
<path d="M114.47 107.098C112.826 108.967 110.609 110.043 108.378 110.043C106.416 110.043 104.598 109.213 103.261 107.706L83.0644 84.7268L81.2355 86.8054L88.212 94.7373L65.5993 120.451C64.9321 121.21 64.3974 122.087 63.9967 123.056C63.3706 124.562 63.113 126.222 63.2363 127.87C57.2663 121.012 53.99 112.307 54 103.348C54.0101 94.785 57.01 86.6776 62.4458 80.5326C67.879 74.3886 75.0911 71 82.7555 71C87.2862 71 91.6011 72.1571 95.5878 74.4226C97.2106 75.334 98.792 76.456 100.282 77.7748L100.992 78.4058L115.014 94.3407C117.942 97.6939 117.706 103.416 114.47 107.098L114.47 107.098Z" fill="#F5F4EF"/>
<path d="M98.5362 106.479L75.9251 132.192C74.8674 133.383 73.4379 134.049 71.9295 134.049C70.3158 134.049 68.7752 133.313 67.6043 131.982C66.4334 130.652 65.7871 128.911 65.7871 127.064C65.7871 125.336 66.36 123.723 67.4198 122.52L90.0308 96.8069L98.5362 106.479Z" fill="#F5F4EF"/>
<path d="M154.168 103.348C154.177 112.367 150.859 121.117 144.818 127.997C141.223 132.074 137.082 136.783 132.849 141.596L108.419 169.143C107.361 170.345 105.943 171 104.422 171C102.798 171 101.258 170.264 100.097 168.932C98.9571 167.634 98.32 165.93 98.289 164.131C98.258 162.368 98.8329 160.708 99.9128 159.469L123.663 132.449L121.447 129.925L97.6937 156.948C96.6349 158.14 95.2074 158.804 93.6971 158.804C92.0844 158.804 90.5437 158.068 89.3709 156.738C88.2009 155.406 87.5537 153.665 87.5537 151.82C87.5537 150.09 88.1285 148.477 89.1863 147.274L112.938 120.252L110.412 117.379L86.6476 144.388C85.5898 145.592 84.1714 146.246 82.652 146.246C81.0292 146.246 79.4865 145.51 78.3258 144.181C77.1859 142.882 76.5487 141.177 76.5177 139.378C76.4757 137.615 77.0616 135.955 78.1405 134.715L100.752 109.004L101.44 109.786C103.269 111.855 105.735 112.988 108.375 112.988C111.263 112.988 114.15 111.597 116.297 109.18C120.53 104.342 120.775 96.7607 116.831 92.2759L105.819 79.7514C111.16 74.0986 118.084 71.0015 125.411 71.0015C133.064 71.0015 140.276 74.39 145.721 80.5351C151.157 86.6777 154.157 94.7851 154.166 103.349L154.168 103.348Z" fill="#F5F4EF"/>
</svg>
