<svg width="492" height="122" viewBox="0 0 492 122" fill="none" xmlns="http://www.w3.org/2000/svg">
<path d="M168.7 60.6C172.7 61.8667 175.833 64 178.1 67C180.367 69.9333 181.5 73.5667 181.5 77.9C181.5 84.0333 179.1 88.7667 174.3 92.1C169.567 95.3667 162.633 97 153.5 97H117.3V27H151.5C160.033 27 166.567 28.6333 171.1 31.9C175.7 35.1667 178 39.6 178 45.2C178 48.6 177.167 51.6333 175.5 54.3C173.9 56.9667 171.633 59.0667 168.7 60.6ZM133.4 39.2V55.7H149.5C153.5 55.7 156.533 55 158.6 53.6C160.667 52.2 161.7 50.1333 161.7 47.4C161.7 44.6667 160.667 42.6333 158.6 41.3C156.533 39.9 153.5 39.2 149.5 39.2H133.4ZM152.3 84.8C156.567 84.8 159.767 84.1 161.9 82.7C164.1 81.3 165.2 79.1333 165.2 76.2C165.2 70.4 160.9 67.5 152.3 67.5H133.4V84.8H152.3ZM245.365 70.3C245.365 70.5 245.265 71.9 245.065 74.5H204.365C205.098 77.8333 206.832 80.4667 209.565 82.4C212.298 84.3333 215.698 85.3 219.765 85.3C222.565 85.3 225.032 84.9 227.165 84.1C229.365 83.2333 231.398 81.9 233.265 80.1L241.565 89.1C236.498 94.9 229.098 97.8 219.365 97.8C213.298 97.8 207.932 96.6333 203.265 94.3C198.598 91.9 194.998 88.6 192.465 84.4C189.932 80.2 188.665 75.4333 188.665 70.1C188.665 64.8333 189.898 60.1 192.365 55.9C194.898 51.6333 198.332 48.3333 202.665 46C207.065 43.6 211.965 42.4 217.365 42.4C222.632 42.4 227.398 43.5333 231.665 45.8C235.932 48.0667 239.265 51.3333 241.665 55.6C244.132 59.8 245.365 64.7 245.365 70.3ZM217.465 54.2C213.932 54.2 210.965 55.2 208.565 57.2C206.165 59.2 204.698 61.9333 204.165 65.4H230.665C230.132 62 228.665 59.3 226.265 57.3C223.865 55.2333 220.932 54.2 217.465 54.2ZM321.051 27V97H304.851V68.3H273.051V97H256.851V27H273.051V54.6H304.851V27H321.051ZM389.213 70.3C389.213 70.5 389.113 71.9 388.913 74.5H348.213C348.946 77.8333 350.679 80.4667 353.413 82.4C356.146 84.3333 359.546 85.3 363.613 85.3C366.413 85.3 368.879 84.9 371.013 84.1C373.213 83.2333 375.246 81.9 377.113 80.1L385.413 89.1C380.346 94.9 372.946 97.8 363.213 97.8C357.146 97.8 351.779 96.6333 347.113 94.3C342.446 91.9 338.846 88.6 336.313 84.4C333.779 80.2 332.513 75.4333 332.513 70.1C332.513 64.8333 333.746 60.1 336.213 55.9C338.746 51.6333 342.179 48.3333 346.513 46C350.913 43.6 355.813 42.4 361.213 42.4C366.479 42.4 371.246 43.5333 375.513 45.8C379.779 48.0667 383.113 51.3333 385.513 55.6C387.979 59.8 389.213 64.7 389.213 70.3ZM361.313 54.2C357.779 54.2 354.813 55.2 352.413 57.2C350.013 59.2 348.546 61.9333 348.013 65.4H374.513C373.979 62 372.513 59.3 370.113 57.3C367.713 55.2333 364.779 54.2 361.313 54.2ZM399.598 22.8H415.198V97H399.598V22.8ZM461.477 42.4C466.477 42.4 471.01 43.5667 475.077 45.9C479.21 48.1667 482.443 51.4 484.777 55.6C487.11 59.7333 488.277 64.5667 488.277 70.1C488.277 75.6333 487.11 80.5 484.777 84.7C482.443 88.8333 479.21 92.0667 475.077 94.4C471.01 96.6667 466.477 97.8 461.477 97.8C454.61 97.8 449.21 95.6333 445.277 91.3V116.4H429.677V43.2H444.577V49.4C448.443 44.7333 454.077 42.4 461.477 42.4ZM458.777 85C462.777 85 466.043 83.6667 468.577 81C471.177 78.2667 472.477 74.6333 472.477 70.1C472.477 65.5667 471.177 61.9667 468.577 59.3C466.043 56.5667 462.777 55.2 458.777 55.2C454.777 55.2 451.477 56.5667 448.877 59.3C446.343 61.9667 445.077 65.5667 445.077 70.1C445.077 74.6333 446.343 78.2667 448.877 81C451.477 83.6667 454.777 85 458.777 85Z" fill="#E99140"/>
<path d="M60.3695 53.0984C58.7276 54.9674 56.5143 56.0427 54.2875 56.0427C52.3284 56.0427 50.5134 55.2125 49.1794 53.7065L29.016 30.7268L27.1901 32.8054L34.155 40.7373L11.5799 66.4506C10.9139 67.2103 10.3801 68.0871 9.98 69.0556C9.355 70.5624 9.09783 72.222 9.22088 73.8701C3.26087 67.0119 -0.00997717 58.3074 2.28622e-05 49.348C0.0101137 40.785 3.00495 32.6776 8.43171 26.5326C13.8559 20.3886 21.0559 17 28.7076 17C33.2307 17 37.5385 18.1571 41.5185 20.4226C43.1386 21.334 44.7174 22.456 46.2053 23.7748L46.9133 24.4058L60.9125 40.3407C63.8357 43.6939 63.5997 49.4164 60.3689 53.0976L60.3695 53.0984Z" fill="#E99140"/>
<path d="M44.4621 52.4785L21.8887 78.1918C20.8327 79.3831 19.4056 80.0493 17.8998 80.0493C16.2888 80.0493 14.7507 79.3134 13.5817 77.9819C12.4128 76.6516 11.7676 74.9111 11.7676 73.0637C11.7676 71.3359 12.3395 69.723 13.3975 68.5202L35.9709 42.8069L44.4621 52.4785Z" fill="#E99140"/>
<path d="M100 49.3482C100.009 58.367 96.6971 67.1169 90.666 73.9975C87.0772 78.0741 82.943 82.7826 78.7168 87.5964L54.3276 115.143C53.2716 116.345 51.8556 117 50.3377 117C48.7166 117 47.1788 116.264 46.0196 114.932C44.8816 113.634 44.2455 111.93 44.2146 110.131C44.1837 108.368 44.7576 106.708 45.8357 105.469L69.5466 78.4493L67.3337 75.9251L43.6203 102.948C42.5633 104.14 41.1382 104.804 39.6304 104.804C38.0204 104.804 36.4823 104.068 35.3114 102.738C34.1434 101.406 33.4972 99.6654 33.4972 97.8201C33.4972 96.09 34.0711 94.4772 35.1271 93.2744L58.8388 66.2522L56.3177 63.3794L32.5926 90.3883C31.5366 91.5922 30.1206 92.2458 28.6037 92.2458C26.9836 92.2458 25.4435 91.5099 24.2847 90.1806C23.1467 88.8821 22.5106 87.1769 22.4797 85.3783C22.4377 83.6153 23.0226 81.9546 24.0997 80.7151L46.674 55.0037L47.3608 55.7861C49.1867 57.8546 51.6479 58.9876 54.2837 58.9876C57.1669 58.9876 60.0496 57.5969 62.1925 55.1798C66.4185 50.3423 66.6635 42.7607 62.7254 38.2759L51.732 25.7514C57.0641 20.0986 63.9762 17.0015 71.2913 17.0015C78.9313 17.0015 86.1321 20.39 91.5672 26.5351C96.9943 32.6777 99.9897 40.7851 99.9988 49.3486L100 49.3482Z" fill="#E99140"/>
</svg>
