<svg width="200" height="200" viewBox="0 0 200 200" fill="none" xmlns="http://www.w3.org/2000/svg">
<rect width="200" height="200" fill="#E99140"/>
<path d="M109.77 87.055C108.199 88.8183 106.081 89.8327 103.95 89.8327C102.075 89.8327 100.338 89.0496 99.0616 87.6288L79.7665 65.9499L78.0193 67.9107L84.6842 75.3937L63.0813 99.6515C62.4439 100.368 61.9331 101.195 61.5502 102.109C60.9522 103.531 60.7061 105.096 60.8238 106.651C55.1204 100.181 51.9905 91.9692 52 83.517C52.0097 75.4387 54.8755 67.7902 60.0686 61.993C65.2592 56.1968 72.1492 53 79.4714 53C83.7997 53 87.922 54.0916 91.7306 56.2289C93.2809 57.0887 94.7918 58.1472 96.2156 59.3913L96.8931 59.9866L110.29 75.0195C113.087 78.1829 112.861 83.5815 109.769 87.0544L109.77 87.055Z" fill="#F5F4EF"/>
<path d="M94.5474 86.4703L72.946 110.728C71.9355 111.852 70.5699 112.481 69.1289 112.481C67.5872 112.481 66.1154 111.786 64.9968 110.53C63.8782 109.275 63.2607 107.633 63.2607 105.89C63.2607 104.26 63.8081 102.739 64.8205 101.604L86.4218 77.3462L94.5474 86.4703Z" fill="#F5F4EF"/>
<path d="M147.694 83.5173C147.703 92.0255 144.533 100.28 138.762 106.771C135.328 110.617 131.371 115.059 127.327 119.6L103.988 145.587C102.978 146.722 101.623 147.34 100.17 147.34C98.6189 147.34 97.1473 146.645 96.0381 145.388C94.9491 144.164 94.3404 142.557 94.3108 140.859C94.2812 139.196 94.8304 137.63 95.8621 136.461L118.552 110.971L116.434 108.59L93.7421 134.083C92.7306 135.207 91.3669 135.834 89.924 135.834C88.3833 135.834 86.9114 135.139 85.7909 133.885C84.6732 132.628 84.0549 130.986 84.0549 129.245C84.0549 127.613 84.6041 126.092 85.6146 124.957L108.305 99.4644L105.893 96.7542L83.1892 122.234C82.1787 123.37 80.8237 123.987 79.3721 123.987C77.8218 123.987 76.348 123.292 75.2391 122.038C74.1501 120.813 73.5414 119.205 73.5118 117.508C73.4716 115.845 74.0314 114.278 75.0621 113.109L96.6642 88.8527L97.3215 89.5907C99.0687 91.5422 101.424 92.6111 103.946 92.6111C106.705 92.6111 109.464 91.2991 111.515 89.0188C115.558 84.4551 115.793 77.3027 112.024 73.0717L101.505 61.2562C106.607 55.9233 113.221 53.0015 120.221 53.0015C127.532 53.0015 134.423 56.1982 139.624 61.9955C144.818 67.7904 147.684 75.4389 147.693 83.5177L147.694 83.5173Z" fill="#F5F4EF"/>
</svg>
