<svg width="209" height="212" viewBox="0 0 209 212" fill="none" xmlns="http://www.w3.org/2000/svg">
<rect width="209" height="212" fill="#99C5E8"/>
<path d="M115.369 92.0984C113.728 93.9674 111.514 95.0427 109.287 95.0427C107.328 95.0427 105.513 94.2125 104.179 92.7065L84.016 69.7268L82.1901 71.8054L89.155 79.7373L66.5799 105.451C65.9139 106.21 65.3801 107.087 64.98 108.056C64.355 109.562 64.0978 111.222 64.2209 112.87C58.2609 106.012 54.99 97.3074 55 88.348C55.0101 79.785 58.0049 71.6776 63.4317 65.5326C68.8559 59.3886 76.0559 56 83.7076 56C88.2307 56 92.5385 57.1571 96.5185 59.4226C98.1386 60.334 99.7174 61.456 101.205 62.7748L101.913 63.4058L115.913 79.3407C118.836 82.6939 118.6 88.4164 115.369 92.0976L115.369 92.0984Z" fill="#F5F4EF"/>
<path d="M99.4621 91.4785L76.8887 117.192C75.8327 118.383 74.4056 119.049 72.8998 119.049C71.2888 119.049 69.7507 118.313 68.5817 116.982C67.4128 115.652 66.7676 113.911 66.7676 112.064C66.7676 110.336 67.3395 108.723 68.3975 107.52L90.9709 81.8069L99.4621 91.4785Z" fill="#F5F4EF"/>
<path d="M155 88.3482C155.009 97.367 151.697 106.117 145.666 112.997C142.077 117.074 137.943 121.783 133.717 126.596L109.328 154.143C108.272 155.345 106.856 156 105.338 156C103.717 156 102.179 155.264 101.02 153.932C99.8816 152.634 99.2455 150.93 99.2146 149.131C99.1837 147.368 99.7576 145.708 100.836 144.469L124.547 117.449L122.334 114.925L98.6203 141.948C97.5633 143.14 96.1382 143.804 94.6304 143.804C93.0204 143.804 91.4823 143.068 90.3114 141.738C89.1434 140.406 88.4972 138.665 88.4972 136.82C88.4972 135.09 89.0711 133.477 90.1271 132.274L113.839 105.252L111.318 102.379L87.5926 129.388C86.5366 130.592 85.1206 131.246 83.6037 131.246C81.9836 131.246 80.4435 130.51 79.2847 129.181C78.1467 127.882 77.5106 126.177 77.4797 124.378C77.4377 122.615 78.0226 120.955 79.0997 119.715L101.674 94.0037L102.361 94.7861C104.187 96.8546 106.648 97.9876 109.284 97.9876C112.167 97.9876 115.05 96.5969 117.193 94.1798C121.418 89.3423 121.664 81.7607 117.725 77.2759L106.732 64.7514C112.064 59.0986 118.976 56.0015 126.291 56.0015C133.931 56.0015 141.132 59.39 146.567 65.5351C151.994 71.6777 154.99 79.7851 154.999 88.3486L155 88.3482Z" fill="#F5F4EF"/>
</svg>
