<svg width="600" height="230" viewBox="0 0 600 230" fill="none" xmlns="http://www.w3.org/2000/svg">
<rect width="600" height="230" fill="#424651"/>
<path d="M221.7 107.6C225.7 108.867 228.833 111 231.1 114C233.367 116.933 234.5 120.567 234.5 124.9C234.5 131.033 232.1 135.767 227.3 139.1C222.567 142.367 215.633 144 206.5 144H170.3V74H204.5C213.033 74 219.567 75.6333 224.1 78.9C228.7 82.1667 231 86.6 231 92.2C231 95.6 230.167 98.6333 228.5 101.3C226.9 103.967 224.633 106.067 221.7 107.6ZM186.4 86.2V102.7H202.5C206.5 102.7 209.533 102 211.6 100.6C213.667 99.2 214.7 97.1333 214.7 94.4C214.7 91.6667 213.667 89.6333 211.6 88.3C209.533 86.9 206.5 86.2 202.5 86.2H186.4ZM205.3 131.8C209.567 131.8 212.767 131.1 214.9 129.7C217.1 128.3 218.2 126.133 218.2 123.2C218.2 117.4 213.9 114.5 205.3 114.5H186.4V131.8H205.3ZM298.365 117.3C298.365 117.5 298.265 118.9 298.065 121.5H257.365C258.098 124.833 259.832 127.467 262.565 129.4C265.298 131.333 268.698 132.3 272.765 132.3C275.565 132.3 278.032 131.9 280.165 131.1C282.365 130.233 284.398 128.9 286.265 127.1L294.565 136.1C289.498 141.9 282.098 144.8 272.365 144.8C266.298 144.8 260.932 143.633 256.265 141.3C251.598 138.9 247.998 135.6 245.465 131.4C242.932 127.2 241.665 122.433 241.665 117.1C241.665 111.833 242.898 107.1 245.365 102.9C247.898 98.6333 251.332 95.3333 255.665 93C260.065 90.6 264.965 89.4 270.365 89.4C275.632 89.4 280.398 90.5333 284.665 92.8C288.932 95.0667 292.265 98.3333 294.665 102.6C297.132 106.8 298.365 111.7 298.365 117.3ZM270.465 101.2C266.932 101.2 263.965 102.2 261.565 104.2C259.165 106.2 257.698 108.933 257.165 112.4H283.665C283.132 109 281.665 106.3 279.265 104.3C276.865 102.233 273.932 101.2 270.465 101.2ZM374.051 74V144H357.851V115.3H326.051V144H309.851V74H326.051V101.6H357.851V74H374.051ZM442.213 117.3C442.213 117.5 442.113 118.9 441.913 121.5H401.213C401.946 124.833 403.679 127.467 406.413 129.4C409.146 131.333 412.546 132.3 416.613 132.3C419.413 132.3 421.879 131.9 424.013 131.1C426.213 130.233 428.246 128.9 430.113 127.1L438.413 136.1C433.346 141.9 425.946 144.8 416.213 144.8C410.146 144.8 404.779 143.633 400.113 141.3C395.446 138.9 391.846 135.6 389.313 131.4C386.779 127.2 385.513 122.433 385.513 117.1C385.513 111.833 386.746 107.1 389.213 102.9C391.746 98.6333 395.179 95.3333 399.513 93C403.913 90.6 408.813 89.4 414.213 89.4C419.479 89.4 424.246 90.5333 428.513 92.8C432.779 95.0667 436.113 98.3333 438.513 102.6C440.979 106.8 442.213 111.7 442.213 117.3ZM414.313 101.2C410.779 101.2 407.813 102.2 405.413 104.2C403.013 106.2 401.546 108.933 401.013 112.4H427.513C426.979 109 425.513 106.3 423.113 104.3C420.713 102.233 417.779 101.2 414.313 101.2ZM452.598 69.8H468.198V144H452.598V69.8ZM514.477 89.4C519.477 89.4 524.01 90.5667 528.077 92.9C532.21 95.1667 535.443 98.4 537.777 102.6C540.11 106.733 541.277 111.567 541.277 117.1C541.277 122.633 540.11 127.5 537.777 131.7C535.443 135.833 532.21 139.067 528.077 141.4C524.01 143.667 519.477 144.8 514.477 144.8C507.61 144.8 502.21 142.633 498.277 138.3V163.4H482.677V90.2H497.577V96.4C501.443 91.7333 507.077 89.4 514.477 89.4ZM511.777 132C515.777 132 519.043 130.667 521.577 128C524.177 125.267 525.477 121.633 525.477 117.1C525.477 112.567 524.177 108.967 521.577 106.3C519.043 103.567 515.777 102.2 511.777 102.2C507.777 102.2 504.477 103.567 501.877 106.3C499.343 108.967 498.077 112.567 498.077 117.1C498.077 121.633 499.343 125.267 501.877 128C504.477 130.667 507.777 132 511.777 132Z" fill="#F5F4EF"/>
<path d="M113.369 100.098C111.728 101.967 109.514 103.043 107.287 103.043C105.328 103.043 103.513 102.213 102.179 100.706L82.016 77.7268L80.1901 79.8054L87.155 87.7373L64.5799 113.451C63.9139 114.21 63.3801 115.087 62.98 116.056C62.355 117.562 62.0978 119.222 62.2209 120.87C56.2609 114.012 52.99 105.307 53 96.348C53.0101 87.785 56.0049 79.6776 61.4317 73.5326C66.8559 67.3886 74.0559 64 81.7076 64C86.2307 64 90.5385 65.1571 94.5185 67.4226C96.1386 68.334 97.7174 69.456 99.2053 70.7748L99.9133 71.4058L113.913 87.3407C116.836 90.6939 116.6 96.4164 113.369 100.098L113.369 100.098Z" fill="#F5F4EF"/>
<path d="M97.4621 99.4785L74.8887 125.192C73.8327 126.383 72.4056 127.049 70.8998 127.049C69.2888 127.049 67.7507 126.313 66.5817 124.982C65.4128 123.652 64.7676 121.911 64.7676 120.064C64.7676 118.336 65.3395 116.723 66.3975 115.52L88.9709 89.8069L97.4621 99.4785Z" fill="#F5F4EF"/>
<path d="M153 96.3482C153.009 105.367 149.697 114.117 143.666 120.997C140.077 125.074 135.943 129.783 131.717 134.596L107.328 162.143C106.272 163.345 104.856 164 103.338 164C101.717 164 100.179 163.264 99.0196 161.932C97.8816 160.634 97.2455 158.93 97.2146 157.131C97.1837 155.368 97.7576 153.708 98.8357 152.469L122.547 125.449L120.334 122.925L96.6203 149.948C95.5633 151.14 94.1382 151.804 92.6304 151.804C91.0204 151.804 89.4823 151.068 88.3114 149.738C87.1434 148.406 86.4972 146.665 86.4972 144.82C86.4972 143.09 87.0711 141.477 88.1271 140.274L111.839 113.252L109.318 110.379L85.5926 137.388C84.5366 138.592 83.1206 139.246 81.6037 139.246C79.9836 139.246 78.4435 138.51 77.2847 137.181C76.1467 135.882 75.5106 134.177 75.4797 132.378C75.4377 130.615 76.0226 128.955 77.0997 127.715L99.674 102.004L100.361 102.786C102.187 104.855 104.648 105.988 107.284 105.988C110.167 105.988 113.05 104.597 115.193 102.18C119.418 97.3423 119.664 89.7607 115.725 85.2759L104.732 72.7514C110.064 67.0986 116.976 64.0015 124.291 64.0015C131.931 64.0015 139.132 67.39 144.567 73.5351C149.994 79.6777 152.99 87.7851 152.999 96.3486L153 96.3482Z" fill="#F5F4EF"/>
</svg>
