<svg width="100" height="100" viewBox="0 0 100 100" fill="none" xmlns="http://www.w3.org/2000/svg">
<path d="M60.3695 36.0984C58.7276 37.9674 56.5143 39.0427 54.2875 39.0427C52.3284 39.0427 50.5134 38.2125 49.1794 36.7065L29.016 13.7268L27.1901 15.8054L34.155 23.7373L11.5799 49.4506C10.9139 50.2103 10.3801 51.0871 9.98 52.0556C9.355 53.5624 9.09783 55.222 9.22088 56.8701C3.26087 50.0119 -0.00997717 41.3074 2.28622e-05 32.348C0.0101137 23.785 3.00495 15.6776 8.43171 9.53261C13.8559 3.38857 21.0559 0 28.7076 0C33.2307 0 37.5385 1.15715 41.5185 3.42265C43.1386 4.33401 44.7174 5.45598 46.2053 6.77477L46.9133 7.40582L60.9125 23.3407C63.8357 26.6939 63.5997 32.4164 60.3689 36.0976L60.3695 36.0984Z" fill="#F5F4EF"/>
<path d="M44.4621 35.4785L21.8887 61.1918C20.8327 62.3831 19.4056 63.0493 17.8998 63.0493C16.2888 63.0493 14.7507 62.3134 13.5817 60.9819C12.4128 59.6516 11.7676 57.9111 11.7676 56.0637C11.7676 54.3359 12.3395 52.723 13.3975 51.5202L35.9709 25.8069L44.4621 35.4785Z" fill="#F5F4EF"/>
<path d="M100 32.3482C100.009 41.367 96.6971 50.1169 90.666 56.9975C87.0772 61.0741 82.943 65.7826 78.7168 70.5964L54.3276 98.1425C53.2716 99.3453 51.8556 100 50.3377 100C48.7166 100 47.1788 99.2641 46.0196 97.9315C44.8816 96.6342 44.2455 94.9301 44.2146 93.1308C44.1837 91.3678 44.7576 89.7081 45.8357 88.4687L69.5466 61.4493L67.3337 58.9251L43.6203 85.9482C42.5633 87.1395 41.1382 87.8036 39.6304 87.8036C38.0204 87.8036 36.4823 87.0676 35.3114 85.7384C34.1434 84.4058 33.4972 82.6654 33.4972 80.8201C33.4972 79.09 34.0711 77.4772 35.1271 76.2744L58.8388 49.2522L56.3177 46.3794L32.5926 73.3883C31.5366 74.5922 30.1206 75.2458 28.6037 75.2458C26.9836 75.2458 25.4435 74.5099 24.2847 73.1806C23.1467 71.8821 22.5106 70.1769 22.4797 68.3783C22.4377 66.6153 23.0226 64.9546 24.0997 63.7151L46.674 38.0037L47.3608 38.7861C49.1867 40.8546 51.6479 41.9876 54.2837 41.9876C57.1669 41.9876 60.0496 40.5969 62.1925 38.1798C66.4185 33.3423 66.6635 25.7607 62.7254 21.2759L51.732 8.75145C57.0641 3.09861 63.9762 0.00152588 71.2913 0.00152588C78.9313 0.00152588 86.1321 3.39 91.5672 9.53509C96.9943 15.6777 99.9897 23.7851 99.9988 32.3486L100 32.3482Z" fill="#F5F4EF"/>
</svg>
