<svg width="493" height="122" viewBox="0 0 493 122" fill="none" xmlns="http://www.w3.org/2000/svg">
<path d="M168.883 60.6C172.883 61.8667 176.016 64 178.283 67C180.549 69.9333 181.683 73.5667 181.683 77.9C181.683 84.0333 179.283 88.7667 174.483 92.1C169.749 95.3667 162.816 97 153.683 97H117.483V27H151.683C160.216 27 166.749 28.6333 171.283 31.9C175.883 35.1667 178.183 39.6 178.183 45.2C178.183 48.6 177.349 51.6333 175.683 54.3C174.083 56.9667 171.816 59.0667 168.883 60.6ZM133.583 39.2V55.7H149.683C153.683 55.7 156.716 55 158.783 53.6C160.849 52.2 161.883 50.1333 161.883 47.4C161.883 44.6667 160.849 42.6333 158.783 41.3C156.716 39.9 153.683 39.2 149.683 39.2H133.583ZM152.483 84.8C156.749 84.8 159.949 84.1 162.083 82.7C164.283 81.3 165.383 79.1333 165.383 76.2C165.383 70.4 161.083 67.5 152.483 67.5H133.583V84.8H152.483ZM245.547 70.3C245.547 70.5 245.447 71.9 245.247 74.5H204.547C205.281 77.8333 207.014 80.4667 209.747 82.4C212.481 84.3333 215.881 85.3 219.947 85.3C222.747 85.3 225.214 84.9 227.347 84.1C229.547 83.2333 231.581 81.9 233.447 80.1L241.747 89.1C236.681 94.9 229.281 97.8 219.547 97.8C213.481 97.8 208.114 96.6333 203.447 94.3C198.781 91.9 195.181 88.6 192.647 84.4C190.114 80.2 188.847 75.4333 188.847 70.1C188.847 64.8333 190.081 60.1 192.547 55.9C195.081 51.6333 198.514 48.3333 202.847 46C207.247 43.6 212.147 42.4 217.547 42.4C222.814 42.4 227.581 43.5333 231.847 45.8C236.114 48.0667 239.447 51.3333 241.847 55.6C244.314 59.8 245.547 64.7 245.547 70.3ZM217.647 54.2C214.114 54.2 211.147 55.2 208.747 57.2C206.347 59.2 204.881 61.9333 204.347 65.4H230.847C230.314 62 228.847 59.3 226.447 57.3C224.047 55.2333 221.114 54.2 217.647 54.2ZM321.233 27V97H305.033V68.3H273.233V97H257.033V27H273.233V54.6H305.033V27H321.233ZM389.395 70.3C389.395 70.5 389.295 71.9 389.095 74.5H348.395C349.128 77.8333 350.862 80.4667 353.595 82.4C356.328 84.3333 359.728 85.3 363.795 85.3C366.595 85.3 369.062 84.9 371.195 84.1C373.395 83.2333 375.428 81.9 377.295 80.1L385.595 89.1C380.528 94.9 373.128 97.8 363.395 97.8C357.328 97.8 351.962 96.6333 347.295 94.3C342.628 91.9 339.028 88.6 336.495 84.4C333.962 80.2 332.695 75.4333 332.695 70.1C332.695 64.8333 333.928 60.1 336.395 55.9C338.928 51.6333 342.362 48.3333 346.695 46C351.095 43.6 355.995 42.4 361.395 42.4C366.662 42.4 371.428 43.5333 375.695 45.8C379.962 48.0667 383.295 51.3333 385.695 55.6C388.162 59.8 389.395 64.7 389.395 70.3ZM361.495 54.2C357.962 54.2 354.995 55.2 352.595 57.2C350.195 59.2 348.728 61.9333 348.195 65.4H374.695C374.162 62 372.695 59.3 370.295 57.3C367.895 55.2333 364.962 54.2 361.495 54.2ZM399.781 22.8H415.381V97H399.781V22.8ZM461.659 42.4C466.659 42.4 471.193 43.5667 475.259 45.9C479.393 48.1667 482.626 51.4 484.959 55.6C487.293 59.7333 488.459 64.5667 488.459 70.1C488.459 75.6333 487.293 80.5 484.959 84.7C482.626 88.8333 479.393 92.0667 475.259 94.4C471.193 96.6667 466.659 97.8 461.659 97.8C454.793 97.8 449.393 95.6333 445.459 91.3V116.4H429.859V43.2H444.759V49.4C448.626 44.7333 454.259 42.4 461.659 42.4ZM458.959 85C462.959 85 466.226 83.6667 468.759 81C471.359 78.2667 472.659 74.6333 472.659 70.1C472.659 65.5667 471.359 61.9667 468.759 59.3C466.226 56.5667 462.959 55.2 458.959 55.2C454.959 55.2 451.659 56.5667 449.059 59.3C446.526 61.9667 445.259 65.5667 445.259 70.1C445.259 74.6333 446.526 78.2667 449.059 81C451.659 83.6667 454.959 85 458.959 85Z" fill="#F5F4EF"/>
<path d="M60.4703 53.0984C58.8256 54.9674 56.6086 56.0427 54.3781 56.0427C52.4158 56.0427 50.5977 55.2125 49.2615 53.7065L29.0644 30.7268L27.2355 32.8054L34.212 40.7373L11.5993 66.4506C10.9321 67.2103 10.3974 68.0871 9.99666 69.0556C9.37062 70.5624 9.11302 72.222 9.23628 73.8701C3.26631 67.0119 -0.00999382 58.3074 2.29004e-05 49.348C0.0101306 40.785 3.00996 32.6776 8.44579 26.5326C13.879 20.3886 21.0911 17 28.7555 17C33.2862 17 37.6011 18.1571 41.5878 20.4226C43.2106 21.334 44.792 22.456 46.2825 23.7748L46.9917 24.4058L61.0142 40.3407C63.9423 43.6939 63.7059 49.4164 60.4697 53.0976L60.4703 53.0984Z" fill="#F5F4EF"/>
<path d="M44.5362 52.4785L21.9251 78.1918C20.8674 79.3831 19.4379 80.0493 17.9295 80.0493C16.3158 80.0493 14.7752 79.3134 13.6043 77.9819C12.4334 76.6516 11.7871 74.9111 11.7871 73.0637C11.7871 71.3359 12.36 69.723 13.4198 68.5202L36.0308 42.8069L44.5362 52.4785Z" fill="#F5F4EF"/>
<path d="M100.168 49.3482C100.177 58.367 96.8591 67.1169 90.8179 73.9975C87.2231 78.0741 83.082 82.7826 78.8488 87.5964L54.4188 115.143C53.3611 116.345 51.9427 117 50.4222 117C48.7985 117 47.2581 116.264 46.097 114.932C44.9571 113.634 44.32 111.93 44.289 110.131C44.258 108.368 44.8329 106.708 45.9128 105.469L69.6633 78.4493L67.4467 75.9251L43.6937 102.948C42.6349 104.14 41.2074 104.804 39.6971 104.804C38.0844 104.804 36.5437 104.068 35.3709 102.738C34.2009 101.406 33.5537 99.6654 33.5537 97.8201C33.5537 96.09 34.1285 94.4772 35.1863 93.2744L58.9376 66.2522L56.4122 63.3794L32.6476 90.3883C31.5898 91.5922 30.1714 92.2458 28.652 92.2458C27.0292 92.2458 25.4865 91.5099 24.3258 90.1806C23.1859 88.8821 22.5487 87.1769 22.5177 85.3783C22.4757 83.6153 23.0616 81.9546 24.1405 80.7151L46.7524 55.0037L47.4405 55.7861C49.2693 57.8546 51.7347 58.9876 54.3749 58.9876C57.2628 58.9876 60.1504 57.5969 62.2969 55.1798C66.5299 50.3423 66.7754 42.7607 62.8307 38.2759L51.819 25.7514C57.1599 20.0986 64.0836 17.0015 71.4108 17.0015C79.0636 17.0015 86.2765 20.39 91.7206 26.5351C97.1567 32.6777 100.157 40.7851 100.166 49.3486L100.168 49.3482Z" fill="#F5F4EF"/>
</svg>
