<svg width="600" height="230" viewBox="0 0 600 230" fill="none" xmlns="http://www.w3.org/2000/svg">
<rect width="600" height="230" fill="#F5F4EF"/>
<path d="M222.7 114.6C226.7 115.867 229.833 118 232.1 121C234.367 123.933 235.5 127.567 235.5 131.9C235.5 138.033 233.1 142.767 228.3 146.1C223.567 149.367 216.633 151 207.5 151H171.3V81H205.5C214.033 81 220.567 82.6333 225.1 85.9C229.7 89.1667 232 93.6 232 99.2C232 102.6 231.167 105.633 229.5 108.3C227.9 110.967 225.633 113.067 222.7 114.6ZM187.4 93.2V109.7H203.5C207.5 109.7 210.533 109 212.6 107.6C214.667 106.2 215.7 104.133 215.7 101.4C215.7 98.6667 214.667 96.6333 212.6 95.3C210.533 93.9 207.5 93.2 203.5 93.2H187.4ZM206.3 138.8C210.567 138.8 213.767 138.1 215.9 136.7C218.1 135.3 219.2 133.133 219.2 130.2C219.2 124.4 214.9 121.5 206.3 121.5H187.4V138.8H206.3ZM299.365 124.3C299.365 124.5 299.265 125.9 299.065 128.5H258.365C259.098 131.833 260.832 134.467 263.565 136.4C266.298 138.333 269.698 139.3 273.765 139.3C276.565 139.3 279.032 138.9 281.165 138.1C283.365 137.233 285.398 135.9 287.265 134.1L295.565 143.1C290.498 148.9 283.098 151.8 273.365 151.8C267.298 151.8 261.932 150.633 257.265 148.3C252.598 145.9 248.998 142.6 246.465 138.4C243.932 134.2 242.665 129.433 242.665 124.1C242.665 118.833 243.898 114.1 246.365 109.9C248.898 105.633 252.332 102.333 256.665 100C261.065 97.6 265.965 96.4 271.365 96.4C276.632 96.4 281.398 97.5333 285.665 99.8C289.932 102.067 293.265 105.333 295.665 109.6C298.132 113.8 299.365 118.7 299.365 124.3ZM271.465 108.2C267.932 108.2 264.965 109.2 262.565 111.2C260.165 113.2 258.698 115.933 258.165 119.4H284.665C284.132 116 282.665 113.3 280.265 111.3C277.865 109.233 274.932 108.2 271.465 108.2ZM375.051 81V151H358.851V122.3H327.051V151H310.851V81H327.051V108.6H358.851V81H375.051ZM443.213 124.3C443.213 124.5 443.113 125.9 442.913 128.5H402.213C402.946 131.833 404.679 134.467 407.413 136.4C410.146 138.333 413.546 139.3 417.613 139.3C420.413 139.3 422.879 138.9 425.013 138.1C427.213 137.233 429.246 135.9 431.113 134.1L439.413 143.1C434.346 148.9 426.946 151.8 417.213 151.8C411.146 151.8 405.779 150.633 401.113 148.3C396.446 145.9 392.846 142.6 390.313 138.4C387.779 134.2 386.513 129.433 386.513 124.1C386.513 118.833 387.746 114.1 390.213 109.9C392.746 105.633 396.179 102.333 400.513 100C404.913 97.6 409.813 96.4 415.213 96.4C420.479 96.4 425.246 97.5333 429.513 99.8C433.779 102.067 437.113 105.333 439.513 109.6C441.979 113.8 443.213 118.7 443.213 124.3ZM415.313 108.2C411.779 108.2 408.813 109.2 406.413 111.2C404.013 113.2 402.546 115.933 402.013 119.4H428.513C427.979 116 426.513 113.3 424.113 111.3C421.713 109.233 418.779 108.2 415.313 108.2ZM453.598 76.8H469.198V151H453.598V76.8ZM515.477 96.4C520.477 96.4 525.01 97.5667 529.077 99.9C533.21 102.167 536.443 105.4 538.777 109.6C541.11 113.733 542.277 118.567 542.277 124.1C542.277 129.633 541.11 134.5 538.777 138.7C536.443 142.833 533.21 146.067 529.077 148.4C525.01 150.667 520.477 151.8 515.477 151.8C508.61 151.8 503.21 149.633 499.277 145.3V170.4H483.677V97.2H498.577V103.4C502.443 98.7333 508.077 96.4 515.477 96.4ZM512.777 139C516.777 139 520.043 137.667 522.577 135C525.177 132.267 526.477 128.633 526.477 124.1C526.477 119.567 525.177 115.967 522.577 113.3C520.043 110.567 516.777 109.2 512.777 109.2C508.777 109.2 505.477 110.567 502.877 113.3C500.343 115.967 499.077 119.567 499.077 124.1C499.077 128.633 500.343 132.267 502.877 135C505.477 137.667 508.777 139 512.777 139Z" fill="#E99140"/>
<path d="M114.369 107.098C112.728 108.967 110.514 110.043 108.287 110.043C106.328 110.043 104.513 109.213 103.179 107.706L83.016 84.7268L81.1901 86.8054L88.155 94.7373L65.5799 120.451C64.9139 121.21 64.3801 122.087 63.98 123.056C63.355 124.562 63.0978 126.222 63.2209 127.87C57.2609 121.012 53.99 112.307 54 103.348C54.0101 94.785 57.0049 86.6776 62.4317 80.5326C67.8559 74.3886 75.0559 71 82.7076 71C87.2307 71 91.5385 72.1571 95.5185 74.4226C97.1386 75.334 98.7174 76.456 100.205 77.7748L100.913 78.4058L114.913 94.3407C117.836 97.6939 117.6 103.416 114.369 107.098L114.369 107.098Z" fill="#E99140"/>
<path d="M98.4621 106.479L75.8887 132.192C74.8327 133.383 73.4056 134.049 71.8998 134.049C70.2888 134.049 68.7507 133.313 67.5817 131.982C66.4128 130.652 65.7676 128.911 65.7676 127.064C65.7676 125.336 66.3395 123.723 67.3975 122.52L89.9709 96.8069L98.4621 106.479Z" fill="#E99140"/>
<path d="M154 103.348C154.009 112.367 150.697 121.117 144.666 127.997C141.077 132.074 136.943 136.783 132.717 141.596L108.328 169.143C107.272 170.345 105.856 171 104.338 171C102.717 171 101.179 170.264 100.02 168.932C98.8816 167.634 98.2455 165.93 98.2146 164.131C98.1837 162.368 98.7576 160.708 99.8357 159.469L123.547 132.449L121.334 129.925L97.6203 156.948C96.5633 158.14 95.1382 158.804 93.6304 158.804C92.0204 158.804 90.4823 158.068 89.3114 156.738C88.1434 155.406 87.4972 153.665 87.4972 151.82C87.4972 150.09 88.0711 148.477 89.1271 147.274L112.839 120.252L110.318 117.379L86.5926 144.388C85.5366 145.592 84.1206 146.246 82.6037 146.246C80.9836 146.246 79.4435 145.51 78.2847 144.181C77.1467 142.882 76.5106 141.177 76.4797 139.378C76.4377 137.615 77.0226 135.955 78.0997 134.715L100.674 109.004L101.361 109.786C103.187 111.855 105.648 112.988 108.284 112.988C111.167 112.988 114.05 111.597 116.193 109.18C120.418 104.342 120.664 96.7607 116.725 92.2759L105.732 79.7514C111.064 74.0986 117.976 71.0015 125.291 71.0015C132.931 71.0015 140.132 74.39 145.567 80.5351C150.994 86.6777 153.99 94.7851 153.999 103.349L154 103.348Z" fill="#E99140"/>
</svg>
