<svg width="513" height="136" viewBox="0 0 513 136" fill="none" xmlns="http://www.w3.org/2000/svg">
<path d="M60.3695 53.0984C58.7276 54.9674 56.5143 56.0427 54.2875 56.0427C52.3284 56.0427 50.5134 55.2125 49.1794 53.7065L29.016 30.7268L27.1901 32.8054L34.155 40.7373L11.5799 66.4506C10.9139 67.2103 10.3801 68.0871 9.98 69.0556C9.355 70.5624 9.09783 72.222 9.22088 73.8701C3.26087 67.0119 -0.00997717 58.3074 2.28622e-05 49.348C0.0101137 40.785 3.00495 32.6776 8.43171 26.5326C13.8559 20.3886 21.0559 17 28.7076 17C33.2307 17 37.5385 18.1571 41.5185 20.4226C43.1386 21.334 44.7174 22.456 46.2053 23.7748L46.9133 24.4058L60.9125 40.3407C63.8357 43.6939 63.5997 49.4164 60.3689 53.0976L60.3695 53.0984Z" fill="#424651"/>
<path d="M44.4621 52.4786L21.8887 78.1919C20.8327 79.3832 19.4056 80.0494 17.8998 80.0494C16.2888 80.0494 14.7507 79.3134 13.5817 77.982C12.4128 76.6516 11.7676 74.9112 11.7676 73.0637C11.7676 71.3359 12.3395 69.7231 13.3975 68.5203L35.9709 42.807L44.4621 52.4786Z" fill="#424651"/>
<path d="M101.523 49.3467C101.532 58.3654 98.2196 67.1153 92.1885 73.9959C88.5996 78.0726 84.4655 82.7811 80.2393 87.5948L55.85 115.141C54.794 116.344 53.378 116.999 51.8601 116.999C50.239 116.999 48.7013 116.263 47.5421 114.93C46.4041 113.633 45.768 111.929 45.7371 110.129C45.7062 108.366 46.2801 106.707 47.3582 105.467L71.0691 78.4478L68.8562 75.9235L45.1428 102.947C44.0858 104.138 42.6607 104.802 41.1528 104.802C39.5428 104.802 38.0047 104.066 36.8338 102.737C35.6658 101.404 35.0196 99.6639 35.0196 97.8186C35.0196 96.0885 35.5935 94.4756 36.6496 93.2728L60.3613 66.2506L57.8401 63.3779L34.1151 90.3868C33.0591 91.5907 31.6431 92.2443 30.1261 92.2443C28.506 92.2443 26.966 91.5083 25.8071 90.1791C24.6691 88.8806 24.033 87.1754 24.0021 85.3768C23.9601 83.6138 24.5451 81.9531 25.6222 80.7136L48.1964 55.0022L48.8833 55.7845C50.7091 57.8531 53.1704 58.9861 55.8061 58.9861C58.6893 58.9861 61.5721 57.5954 63.715 55.1783C67.9409 50.3408 68.186 42.7592 64.2479 38.2743L53.2545 25.7499C58.5865 20.0971 65.4987 17 72.8137 17C80.4538 17 87.6546 20.3885 93.0896 26.5336C98.5167 32.6762 101.512 40.7836 101.521 49.3471L101.523 49.3467Z" fill="#424651"/>
<path d="M168.7 60.6C172.7 61.8667 175.833 64 178.1 67C180.367 69.9333 181.5 73.5667 181.5 77.9C181.5 84.0333 179.1 88.7667 174.3 92.1C169.567 95.3667 162.633 97 153.5 97H117.3V27H151.5C160.033 27 166.567 28.6333 171.1 31.9C175.7 35.1667 178 39.6 178 45.2C178 48.6 177.167 51.6333 175.5 54.3C173.9 56.9667 171.633 59.0667 168.7 60.6ZM133.4 39.2V55.7H149.5C153.5 55.7 156.533 55 158.6 53.6C160.667 52.2 161.7 50.1333 161.7 47.4C161.7 44.6667 160.667 42.6333 158.6 41.3C156.533 39.9 153.5 39.2 149.5 39.2H133.4ZM152.3 84.8C156.567 84.8 159.767 84.1 161.9 82.7C164.1 81.3 165.2 79.1333 165.2 76.2C165.2 70.4 160.9 67.5 152.3 67.5H133.4V84.8H152.3ZM245.365 70.3C245.365 70.5 245.265 71.9 245.065 74.5H204.365C205.098 77.8333 206.832 80.4667 209.565 82.4C212.298 84.3333 215.698 85.3 219.765 85.3C222.565 85.3 225.032 84.9 227.165 84.1C229.365 83.2333 231.398 81.9 233.265 80.1L241.565 89.1C236.498 94.9 229.098 97.8 219.365 97.8C213.298 97.8 207.932 96.6333 203.265 94.3C198.598 91.9 194.998 88.6 192.465 84.4C189.932 80.2 188.665 75.4333 188.665 70.1C188.665 64.8333 189.898 60.1 192.365 55.9C194.898 51.6333 198.332 48.3333 202.665 46C207.065 43.6 211.965 42.4 217.365 42.4C222.632 42.4 227.398 43.5333 231.665 45.8C235.932 48.0667 239.265 51.3333 241.665 55.6C244.132 59.8 245.365 64.7 245.365 70.3ZM217.465 54.2C213.932 54.2 210.965 55.2 208.565 57.2C206.165 59.2 204.698 61.9333 204.165 65.4H230.665C230.132 62 228.665 59.3 226.265 57.3C223.865 55.2333 220.932 54.2 217.465 54.2ZM321.051 27V97H304.851V68.3H273.051V97H256.851V27H273.051V54.6H304.851V27H321.051ZM389.213 70.3C389.213 70.5 389.113 71.9 388.913 74.5H348.213C348.946 77.8333 350.679 80.4667 353.413 82.4C356.146 84.3333 359.546 85.3 363.613 85.3C366.413 85.3 368.879 84.9 371.013 84.1C373.213 83.2333 375.246 81.9 377.113 80.1L385.413 89.1C380.346 94.9 372.946 97.8 363.213 97.8C357.146 97.8 351.779 96.6333 347.113 94.3C342.446 91.9 338.846 88.6 336.313 84.4C333.779 80.2 332.513 75.4333 332.513 70.1C332.513 64.8333 333.746 60.1 336.213 55.9C338.746 51.6333 342.179 48.3333 346.513 46C350.913 43.6 355.813 42.4 361.213 42.4C366.479 42.4 371.246 43.5333 375.513 45.8C379.779 48.0667 383.113 51.3333 385.513 55.6C387.979 59.8 389.213 64.7 389.213 70.3ZM361.313 54.2C357.779 54.2 354.813 55.2 352.413 57.2C350.013 59.2 348.546 61.9333 348.013 65.4H374.513C373.979 62 372.513 59.3 370.113 57.3C367.713 55.2333 364.779 54.2 361.313 54.2ZM399.598 22.8H415.198V97H399.598V22.8ZM461.477 42.4C466.477 42.4 471.01 43.5667 475.077 45.9C479.21 48.1667 482.443 51.4 484.777 55.6C487.11 59.7333 488.277 64.5667 488.277 70.1C488.277 75.6333 487.11 80.5 484.777 84.7C482.443 88.8333 479.21 92.0667 475.077 94.4C471.01 96.6667 466.477 97.8 461.477 97.8C454.61 97.8 449.21 95.6333 445.277 91.3V116.4H429.677V43.2H444.577V49.4C448.443 44.7333 454.077 42.4 461.477 42.4ZM458.777 85C462.777 85 466.043 83.6667 468.577 81C471.177 78.2667 472.477 74.6333 472.477 70.1C472.477 65.5667 471.177 61.9667 468.577 59.3C466.043 56.5667 462.777 55.2 458.777 55.2C454.777 55.2 451.477 56.5667 448.877 59.3C446.343 61.9667 445.077 65.5667 445.077 70.1C445.077 74.6333 446.343 78.2667 448.877 81C451.477 83.6667 454.777 85 458.777 85Z" fill="#424651"/>
</svg>
