<?xml version="1.0" encoding="UTF-8" standalone="no"?>
<!DOCTYPE svg PUBLIC "-//W3C//DTD SVG 1.1//EN"
 "http://www.w3.org/Graphics/SVG/1.1/DTD/svg11.dtd">
<!-- Generated by graphviz version 2.44.0 (20200408.0750)
 -->
<!-- Title: dependency&#45;cruiser output Pages: 1 -->
<svg width="756pt" height="266pt"
 viewBox="0.00 0.00 756.04 266.00" xmlns="http://www.w3.org/2000/svg" xmlns:xlink="http://www.w3.org/1999/xlink">
<g id="graph0" class="graph" transform="scale(1 1) rotate(0) translate(4 262)">
<title>dependency&#45;cruiser output</title>
<polygon fill="white" stroke="transparent" points="-4,4 -4,-262 752.04,-262 752.04,4 -4,4"/>
<g id="clust1" class="cluster">
<title>cluster_api</title>
<path fill="#ffffff" stroke="black" stroke-width="2" d="M20,-100C20,-100 674.04,-100 674.04,-100 680.04,-100 686.04,-106 686.04,-112 686.04,-112 686.04,-238 686.04,-238 686.04,-244 680.04,-250 674.04,-250 674.04,-250 20,-250 20,-250 14,-250 8,-244 8,-238 8,-238 8,-112 8,-112 8,-106 14,-100 20,-100"/>
<text text-anchor="middle" x="347.02" y="-237.9" font-family="Helvetica,sans-Serif" font-weight="bold" font-size="9.00">api</text>
</g>
<g id="clust2" class="cluster">
<title>cluster_api/business&#45;logic</title>
<path fill="#ffffff" stroke="black" stroke-width="2" d="M337.01,-108C337.01,-108 395.02,-108 395.02,-108 401.02,-108 407.02,-114 407.02,-120 407.02,-120 407.02,-180 407.02,-180 407.02,-186 401.02,-192 395.02,-192 395.02,-192 337.01,-192 337.01,-192 331.01,-192 325.01,-186 325.01,-180 325.01,-180 325.01,-120 325.01,-120 325.01,-114 331.01,-108 337.01,-108"/>
<text text-anchor="middle" x="366.02" y="-179.9" font-family="Helvetica,sans-Serif" font-weight="bold" font-size="9.00">business&#45;logic</text>
</g>
<g id="clust3" class="cluster">
<title>cluster_api/config</title>
<path fill="#ffffff" stroke="black" stroke-width="2" d="M530.53,-108C530.53,-108 666.04,-108 666.04,-108 672.04,-108 678.04,-114 678.04,-120 678.04,-120 678.04,-211 678.04,-211 678.04,-217 672.04,-223 666.04,-223 666.04,-223 530.53,-223 530.53,-223 524.53,-223 518.53,-217 518.53,-211 518.53,-211 518.53,-120 518.53,-120 518.53,-114 524.53,-108 530.53,-108"/>
<text text-anchor="middle" x="598.29" y="-210.9" font-family="Helvetica,sans-Serif" font-weight="bold" font-size="9.00">config</text>
</g>
<g id="clust4" class="cluster">
<title>cluster_api/controllers</title>
<path fill="#ffffff" stroke="black" stroke-width="2" d="M247.01,-108C247.01,-108 305.01,-108 305.01,-108 311.01,-108 317.01,-114 317.01,-120 317.01,-120 317.01,-180 317.01,-180 317.01,-186 311.01,-192 305.01,-192 305.01,-192 247.01,-192 247.01,-192 241.01,-192 235.01,-186 235.01,-180 235.01,-180 235.01,-120 235.01,-120 235.01,-114 241.01,-108 247.01,-108"/>
<text text-anchor="middle" x="276.01" y="-179.9" font-family="Helvetica,sans-Serif" font-weight="bold" font-size="9.00">controllers</text>
</g>
<g id="clust5" class="cluster">
<title>cluster_api/data&#45;access</title>
<path fill="#ffffff" stroke="black" stroke-width="2" d="M427.02,-108C427.02,-108 498.53,-108 498.53,-108 504.53,-108 510.53,-114 510.53,-120 510.53,-120 510.53,-180 510.53,-180 510.53,-186 504.53,-192 498.53,-192 498.53,-192 427.02,-192 427.02,-192 421.02,-192 415.02,-186 415.02,-180 415.02,-180 415.02,-120 415.02,-120 415.02,-114 421.02,-108 427.02,-108"/>
<text text-anchor="middle" x="462.77" y="-179.9" font-family="Helvetica,sans-Serif" font-weight="bold" font-size="9.00">data&#45;access</text>
</g>
<g id="clust6" class="cluster">
<title>cluster_api/routes</title>
<path fill="#ffffff" stroke="black" stroke-width="2" d="M90,-108C90,-108 215.01,-108 215.01,-108 221.01,-108 227.01,-114 227.01,-120 227.01,-120 227.01,-180 227.01,-180 227.01,-186 221.01,-192 215.01,-192 215.01,-192 90,-192 90,-192 84,-192 78,-186 78,-180 78,-180 78,-120 78,-120 78,-114 84,-108 90,-108"/>
<text text-anchor="middle" x="152.5" y="-179.9" font-family="Helvetica,sans-Serif" font-weight="bold" font-size="9.00">routes</text>
</g>
<g id="clust7" class="cluster">
<title>cluster_node_modules</title>
<path fill="#ffffff" stroke="black" stroke-width="2" d="M437.77,-8C437.77,-8 488.77,-8 488.77,-8 494.77,-8 500.77,-14 500.77,-20 500.77,-20 500.77,-80 500.77,-80 500.77,-86 494.77,-92 488.77,-92 488.77,-92 437.77,-92 437.77,-92 431.77,-92 425.77,-86 425.77,-80 425.77,-80 425.77,-20 425.77,-20 425.77,-14 431.77,-8 437.77,-8"/>
<text text-anchor="middle" x="463.27" y="-79.9" font-family="Helvetica,sans-Serif" font-weight="bold" font-size="9.00">node_modules</text>
</g>
<!-- api/business&#45;logic/channels.js -->
<g id="node1" class="node">
<title>api/business&#45;logic/channels.js</title>
<g id="a_node1"><a xlink:href="api/business-logic/channels.js" xlink:title="channels.js">
<path fill="#ffffcc" stroke="black" d="M390.33,-134.3C390.33,-134.3 341.71,-134.3 341.71,-134.3 338.61,-134.3 335.51,-131.2 335.51,-128.1 335.51,-128.1 335.51,-121.9 335.51,-121.9 335.51,-118.8 338.61,-115.7 341.71,-115.7 341.71,-115.7 390.33,-115.7 390.33,-115.7 393.43,-115.7 396.53,-118.8 396.53,-121.9 396.53,-121.9 396.53,-128.1 396.53,-128.1 396.53,-131.2 393.43,-134.3 390.33,-134.3"/>
<text text-anchor="middle" x="366.02" y="-122.3" font-family="Helvetica,sans-Serif" font-size="9.00">channels.js</text>
</a>
</g>
</g>
<!-- api/data&#45;access/persistent.js -->
<g id="node2" class="node">
<title>api/data&#45;access/persistent.js</title>
<g id="a_node2"><a xlink:href="api/data-access/persistent.js" xlink:title="persistent.js">
<path fill="#ffffcc" stroke="black" d="M488.58,-165.3C488.58,-165.3 436.97,-165.3 436.97,-165.3 433.87,-165.3 430.77,-162.2 430.77,-159.1 430.77,-159.1 430.77,-152.9 430.77,-152.9 430.77,-149.8 433.87,-146.7 436.97,-146.7 436.97,-146.7 488.58,-146.7 488.58,-146.7 491.68,-146.7 494.78,-149.8 494.78,-152.9 494.78,-152.9 494.78,-159.1 494.78,-159.1 494.78,-162.2 491.68,-165.3 488.58,-165.3"/>
<text text-anchor="middle" x="462.77" y="-153.3" font-family="Helvetica,sans-Serif" font-size="9.00">persistent.js</text>
</a>
</g>
</g>
<!-- api/business&#45;logic/channels.js&#45;&gt;api/data&#45;access/persistent.js -->
<g id="edge1" class="edge">
<title>api/business&#45;logic/channels.js&#45;&gt;api/data&#45;access/persistent.js</title>
<path fill="none" stroke="#000000" stroke-width="2" stroke-opacity="0.200000" d="M395.7,-134.39C405.63,-137.63 416.86,-141.31 427.21,-144.69"/>
<polygon fill="#000000" fill-opacity="0.200000" stroke="#000000" stroke-width="2" stroke-opacity="0.200000" points="426.83,-146.78 433.18,-146.65 428.14,-142.79 426.83,-146.78"/>
</g>
<!-- node_modules/objectid -->
<g id="node3" class="node">
<title>node_modules/objectid</title>
<g id="a_node3"><a xlink:href="node_modules/objectid" xlink:title="objectid">
<polygon fill="#c40b0a" fill-opacity="0.101961" stroke="black" points="489.77,-65.3 437.84,-65.3 435.77,-63.23 435.77,-46.7 487.71,-46.7 489.77,-48.77 489.77,-65.3"/>
<polyline fill="none" stroke="black" points="487.71,-63.23 435.77,-63.23 "/>
<polyline fill="none" stroke="black" points="487.71,-63.23 487.71,-46.7 "/>
<polyline fill="none" stroke="black" points="487.71,-63.23 489.77,-65.3 "/>
<text text-anchor="middle" x="462.77" y="-53.3" font-family="Helvetica,sans-Serif" font-size="9.00" fill="#c40b0a">objectid</text>
</a>
</g>
</g>
<!-- api/business&#45;logic/channels.js&#45;&gt;node_modules/objectid -->
<g id="edge2" class="edge">
<title>api/business&#45;logic/channels.js&#45;&gt;node_modules/objectid</title>
<path fill="none" stroke="#000000" stroke-opacity="0.200000" d="M385.82,-115.69C392.68,-112.03 400.38,-107.61 407.02,-103 421.66,-92.85 436.94,-79.47 447.62,-69.59"/>
<polygon fill="#000000" fill-opacity="0.200000" stroke="#000000" stroke-opacity="0.200000" points="449.24,-70.95 452.19,-65.31 446.37,-67.88 449.24,-70.95"/>
</g>
<!-- path -->
<g id="node6" class="node">
<title>path</title>
<path fill="#ffffcc" stroke="grey" d="M741.84,-125.3C741.84,-125.3 700.24,-125.3 700.24,-125.3 697.14,-125.3 694.04,-122.2 694.04,-119.1 694.04,-119.1 694.04,-112.9 694.04,-112.9 694.04,-109.8 697.14,-106.7 700.24,-106.7 700.24,-106.7 741.84,-106.7 741.84,-106.7 744.94,-106.7 748.04,-109.8 748.04,-112.9 748.04,-112.9 748.04,-119.1 748.04,-119.1 748.04,-122.2 744.94,-125.3 741.84,-125.3"/>
<text text-anchor="middle" x="721.04" y="-113.3" font-family="Helvetica,sans-Serif" font-size="9.00" fill="grey">path</text>
</g>
<!-- api/data&#45;access/persistent.js&#45;&gt;path -->
<g id="edge11" class="edge">
<title>api/data&#45;access/persistent.js&#45;&gt;path</title>
<path fill="none" stroke="#000000" stroke-dasharray="5,2" stroke-opacity="0.200000" d="M495.11,-150.2C500.89,-147.87 506.4,-144.59 510.53,-140 521.2,-128.14 506.05,-114.95 518.53,-105 569.03,-64.74 651.28,-88.16 693.38,-104.43"/>
<polygon fill="#000000" fill-opacity="0.200000" stroke="#000000" stroke-opacity="0.200000" points="692.69,-106.42 699.04,-106.67 694.24,-102.51 692.69,-106.42"/>
</g>
<!-- api/config/index.js -->
<g id="node8" class="node">
<title>api/config/index.js</title>
<g id="a_node8"><a xlink:href="api/config/index.js" xlink:title="index.js">
<path fill="#ffffcc" stroke="black" d="M585.59,-165.3C585.59,-165.3 543.99,-165.3 543.99,-165.3 540.89,-165.3 537.79,-162.2 537.79,-159.1 537.79,-159.1 537.79,-152.9 537.79,-152.9 537.79,-149.8 540.89,-146.7 543.99,-146.7 543.99,-146.7 585.59,-146.7 585.59,-146.7 588.69,-146.7 591.79,-149.8 591.79,-152.9 591.79,-152.9 591.79,-159.1 591.79,-159.1 591.79,-162.2 588.69,-165.3 585.59,-165.3"/>
<text text-anchor="middle" x="564.79" y="-153.3" font-family="Helvetica,sans-Serif" font-size="9.00">index.js</text>
</a>
</g>
</g>
<!-- api/data&#45;access/persistent.js&#45;&gt;api/config/index.js -->
<g id="edge9" class="edge">
<title>api/data&#45;access/persistent.js&#45;&gt;api/config/index.js</title>
<path fill="none" stroke="#000000" stroke-width="2" stroke-opacity="0.200000" d="M494.87,-156C506.59,-156 519.93,-156 531.74,-156"/>
<polygon fill="#000000" fill-opacity="0.200000" stroke="#000000" stroke-width="2" stroke-opacity="0.200000" points="531.75,-158.1 537.75,-156 531.75,-153.9 531.75,-158.1"/>
</g>
<!-- fs -->
<g id="node13" class="node">
<title>fs</title>
<path fill="#ffffcc" stroke="grey" d="M585.59,-74.3C585.59,-74.3 543.99,-74.3 543.99,-74.3 540.89,-74.3 537.79,-71.2 537.79,-68.1 537.79,-68.1 537.79,-61.9 537.79,-61.9 537.79,-58.8 540.89,-55.7 543.99,-55.7 543.99,-55.7 585.59,-55.7 585.59,-55.7 588.69,-55.7 591.79,-58.8 591.79,-61.9 591.79,-61.9 591.79,-68.1 591.79,-68.1 591.79,-71.2 588.69,-74.3 585.59,-74.3"/>
<text text-anchor="middle" x="564.79" y="-62.3" font-family="Helvetica,sans-Serif" font-size="9.00" fill="grey">fs</text>
</g>
<!-- api/data&#45;access/persistent.js&#45;&gt;fs -->
<g id="edge10" class="edge">
<title>api/data&#45;access/persistent.js&#45;&gt;fs</title>
<path fill="none" stroke="#000000" stroke-dasharray="5,2" stroke-opacity="0.200000" d="M494.94,-150.66C500.87,-148.3 506.49,-144.9 510.53,-140 526.82,-120.27 502.73,-103.12 518.53,-83 522.06,-78.51 526.88,-75.13 532.06,-72.6"/>
<polygon fill="#000000" fill-opacity="0.200000" stroke="#000000" stroke-opacity="0.200000" points="533.08,-74.45 537.78,-70.16 531.44,-70.58 533.08,-74.45"/>
</g>
<!-- util -->
<g id="node14" class="node">
<title>util</title>
<path fill="#ffffcc" stroke="grey" d="M585.59,-43.3C585.59,-43.3 543.99,-43.3 543.99,-43.3 540.89,-43.3 537.79,-40.2 537.79,-37.1 537.79,-37.1 537.79,-30.9 537.79,-30.9 537.79,-27.8 540.89,-24.7 543.99,-24.7 543.99,-24.7 585.59,-24.7 585.59,-24.7 588.69,-24.7 591.79,-27.8 591.79,-30.9 591.79,-30.9 591.79,-37.1 591.79,-37.1 591.79,-40.2 588.69,-43.3 585.59,-43.3"/>
<text text-anchor="middle" x="564.79" y="-31.3" font-family="Helvetica,sans-Serif" font-size="9.00" fill="grey">util</text>
</g>
<!-- api/data&#45;access/persistent.js&#45;&gt;util -->
<g id="edge12" class="edge">
<title>api/data&#45;access/persistent.js&#45;&gt;util</title>
<path fill="none" stroke="#000000" stroke-dasharray="5,2" stroke-opacity="0.200000" d="M495.13,-150.81C501.05,-148.44 506.61,-145 510.53,-140 522.92,-124.2 506.22,-65.86 518.53,-50 521.98,-45.55 526.76,-42.34 531.93,-40.01"/>
<polygon fill="#000000" fill-opacity="0.200000" stroke="#000000" stroke-opacity="0.200000" points="532.8,-41.93 537.65,-37.83 531.3,-38.01 532.8,-41.93"/>
</g>
<!-- api/business&#45;logic/messages.js -->
<g id="node4" class="node">
<title>api/business&#45;logic/messages.js</title>
<g id="a_node4"><a xlink:href="api/business-logic/messages.js" xlink:title="messages.js">
<path fill="#ffffcc" stroke="black" d="M392.82,-165.3C392.82,-165.3 339.21,-165.3 339.21,-165.3 336.11,-165.3 333.01,-162.2 333.01,-159.1 333.01,-159.1 333.01,-152.9 333.01,-152.9 333.01,-149.8 336.11,-146.7 339.21,-146.7 339.21,-146.7 392.82,-146.7 392.82,-146.7 395.92,-146.7 399.02,-149.8 399.02,-152.9 399.02,-152.9 399.02,-159.1 399.02,-159.1 399.02,-162.2 395.92,-165.3 392.82,-165.3"/>
<text text-anchor="middle" x="366.02" y="-153.3" font-family="Helvetica,sans-Serif" font-size="9.00">messages.js</text>
</a>
</g>
</g>
<!-- api/business&#45;logic/messages.js&#45;&gt;api/data&#45;access/persistent.js -->
<g id="edge3" class="edge">
<title>api/business&#45;logic/messages.js&#45;&gt;api/data&#45;access/persistent.js</title>
<path fill="none" stroke="#000000" stroke-width="2" stroke-opacity="0.200000" d="M399.1,-156C407.23,-156 416.03,-156 424.4,-156"/>
<polygon fill="#000000" fill-opacity="0.200000" stroke="#000000" stroke-width="2" stroke-opacity="0.200000" points="424.69,-158.1 430.69,-156 424.69,-153.9 424.69,-158.1"/>
</g>
<!-- api/business&#45;logic/messages.js&#45;&gt;node_modules/objectid -->
<g id="edge4" class="edge">
<title>api/business&#45;logic/messages.js&#45;&gt;node_modules/objectid</title>
<path fill="none" stroke="#000000" stroke-opacity="0.200000" d="M399.09,-146.64C402.06,-144.81 404.78,-142.61 407.02,-140 417.39,-127.87 407.46,-119.05 415.02,-105 422.39,-91.29 434.63,-78.66 444.75,-69.66"/>
<polygon fill="#000000" fill-opacity="0.200000" stroke="#000000" stroke-opacity="0.200000" points="446.34,-71.06 449.51,-65.54 443.59,-67.88 446.34,-71.06"/>
</g>
<!-- api/config/default.js -->
<g id="node5" class="node">
<title>api/config/default.js</title>
<g id="a_node5"><a xlink:href="api/config/default.js" xlink:title="default.js">
<path fill="#ffffcc" stroke="black" d="M663.84,-149.3C663.84,-149.3 622.24,-149.3 622.24,-149.3 619.14,-149.3 616.04,-146.2 616.04,-143.1 616.04,-143.1 616.04,-136.9 616.04,-136.9 616.04,-133.8 619.14,-130.7 622.24,-130.7 622.24,-130.7 663.84,-130.7 663.84,-130.7 666.94,-130.7 670.04,-133.8 670.04,-136.9 670.04,-136.9 670.04,-143.1 670.04,-143.1 670.04,-146.2 666.94,-149.3 663.84,-149.3"/>
<text text-anchor="middle" x="643.04" y="-137.3" font-family="Helvetica,sans-Serif" font-size="9.00">default.js</text>
</a>
</g>
</g>
<!-- api/config/default.js&#45;&gt;path -->
<g id="edge5" class="edge">
<title>api/config/default.js&#45;&gt;path</title>
<path fill="none" stroke="#000000" stroke-dasharray="5,2" stroke-opacity="0.200000" d="M670.2,-131.74C675.93,-129.93 682.06,-127.99 688,-126.12"/>
<polygon fill="#000000" fill-opacity="0.200000" stroke="#000000" stroke-opacity="0.200000" points="688.75,-128.08 693.84,-124.27 687.49,-124.08 688.75,-128.08"/>
</g>
<!-- api/config/development.js -->
<g id="node7" class="node">
<title>api/config/development.js</title>
<g id="a_node7"><a xlink:href="api/config/development.js" xlink:title="development.js">
<path fill="#ccffcc" stroke="black" d="M596.6,-196.3C596.6,-196.3 532.97,-196.3 532.97,-196.3 529.87,-196.3 526.77,-193.2 526.77,-190.1 526.77,-190.1 526.77,-183.9 526.77,-183.9 526.77,-180.8 529.87,-177.7 532.97,-177.7 532.97,-177.7 596.6,-177.7 596.6,-177.7 599.7,-177.7 602.8,-180.8 602.8,-183.9 602.8,-183.9 602.8,-190.1 602.8,-190.1 602.8,-193.2 599.7,-196.3 596.6,-196.3"/>
<text text-anchor="middle" x="564.79" y="-184.3" font-family="Helvetica,sans-Serif" font-size="9.00">development.js</text>
</a>
</g>
</g>
<!-- api/config/index.js&#45;&gt;api/config/default.js -->
<g id="edge6" class="edge">
<title>api/config/index.js&#45;&gt;api/config/default.js</title>
<path fill="none" stroke="#000000" stroke-width="2" stroke-opacity="0.200000" d="M592.03,-150.49C597.85,-149.27 604.07,-147.97 610.09,-146.7"/>
<polygon fill="#000000" fill-opacity="0.200000" stroke="#000000" stroke-width="2" stroke-opacity="0.200000" points="610.57,-148.75 616.01,-145.46 609.71,-144.64 610.57,-148.75"/>
</g>
<!-- api/config/production.js -->
<g id="node9" class="node">
<title>api/config/production.js</title>
<g id="a_node9"><a xlink:href="api/config/production.js" xlink:title="production.js">
<path fill="#ccffcc" stroke="black" d="M592.1,-134.3C592.1,-134.3 537.48,-134.3 537.48,-134.3 534.38,-134.3 531.28,-131.2 531.28,-128.1 531.28,-128.1 531.28,-121.9 531.28,-121.9 531.28,-118.8 534.38,-115.7 537.48,-115.7 537.48,-115.7 592.1,-115.7 592.1,-115.7 595.2,-115.7 598.3,-118.8 598.3,-121.9 598.3,-121.9 598.3,-128.1 598.3,-128.1 598.3,-131.2 595.2,-134.3 592.1,-134.3"/>
<text text-anchor="middle" x="564.79" y="-122.3" font-family="Helvetica,sans-Serif" font-size="9.00">production.js</text>
</a>
</g>
</g>
<!-- api/controllers/channels.js -->
<g id="node10" class="node">
<title>api/controllers/channels.js</title>
<g id="a_node10"><a xlink:href="api/controllers/channels.js" xlink:title="channels.js">
<path fill="#ffffcc" stroke="black" d="M300.32,-134.3C300.32,-134.3 251.7,-134.3 251.7,-134.3 248.6,-134.3 245.5,-131.2 245.5,-128.1 245.5,-128.1 245.5,-121.9 245.5,-121.9 245.5,-118.8 248.6,-115.7 251.7,-115.7 251.7,-115.7 300.32,-115.7 300.32,-115.7 303.42,-115.7 306.52,-118.8 306.52,-121.9 306.52,-121.9 306.52,-128.1 306.52,-128.1 306.52,-131.2 303.42,-134.3 300.32,-134.3"/>
<text text-anchor="middle" x="276.01" y="-122.3" font-family="Helvetica,sans-Serif" font-size="9.00">channels.js</text>
</a>
</g>
</g>
<!-- api/controllers/channels.js&#45;&gt;api/business&#45;logic/channels.js -->
<g id="edge7" class="edge">
<title>api/controllers/channels.js&#45;&gt;api/business&#45;logic/channels.js</title>
<path fill="none" stroke="#000000" stroke-width="2" stroke-opacity="0.200000" d="M306.81,-125C313.97,-125 321.71,-125 329.12,-125"/>
<polygon fill="#000000" fill-opacity="0.200000" stroke="#000000" stroke-width="2" stroke-opacity="0.200000" points="329.25,-127.1 335.25,-125 329.25,-122.9 329.25,-127.1"/>
</g>
<!-- api/controllers/messages.js -->
<g id="node11" class="node">
<title>api/controllers/messages.js</title>
<g id="a_node11"><a xlink:href="api/controllers/messages.js" xlink:title="messages.js">
<path fill="#ffffcc" stroke="black" d="M302.82,-165.3C302.82,-165.3 249.2,-165.3 249.2,-165.3 246.1,-165.3 243,-162.2 243,-159.1 243,-159.1 243,-152.9 243,-152.9 243,-149.8 246.1,-146.7 249.2,-146.7 249.2,-146.7 302.82,-146.7 302.82,-146.7 305.92,-146.7 309.02,-149.8 309.02,-152.9 309.02,-152.9 309.02,-159.1 309.02,-159.1 309.02,-162.2 305.92,-165.3 302.82,-165.3"/>
<text text-anchor="middle" x="276.01" y="-153.3" font-family="Helvetica,sans-Serif" font-size="9.00">messages.js</text>
</a>
</g>
</g>
<!-- api/controllers/messages.js&#45;&gt;api/business&#45;logic/messages.js -->
<g id="edge8" class="edge">
<title>api/controllers/messages.js&#45;&gt;api/business&#45;logic/messages.js</title>
<path fill="none" stroke="#000000" stroke-width="2" stroke-opacity="0.200000" d="M309.28,-156C314.9,-156 320.8,-156 326.56,-156"/>
<polygon fill="#000000" fill-opacity="0.200000" stroke="#000000" stroke-width="2" stroke-opacity="0.200000" points="326.75,-158.1 332.75,-156 326.75,-153.9 326.75,-158.1"/>
</g>
<!-- api/data&#45;access/not&#45;persistent.js -->
<g id="node12" class="node">
<title>api/data&#45;access/not&#45;persistent.js</title>
<g id="a_node12"><a xlink:href="api/data-access/not-persistent.js" xlink:title="not&#45;persistent.js">
<path fill="#ccffcc" stroke="black" d="M496.09,-134.3C496.09,-134.3 429.46,-134.3 429.46,-134.3 426.36,-134.3 423.26,-131.2 423.26,-128.1 423.26,-128.1 423.26,-121.9 423.26,-121.9 423.26,-118.8 426.36,-115.7 429.46,-115.7 429.46,-115.7 496.09,-115.7 496.09,-115.7 499.19,-115.7 502.29,-118.8 502.29,-121.9 502.29,-121.9 502.29,-128.1 502.29,-128.1 502.29,-131.2 499.19,-134.3 496.09,-134.3"/>
<text text-anchor="middle" x="462.77" y="-122.3" font-family="Helvetica,sans-Serif" font-size="9.00">not&#45;persistent.js</text>
</a>
</g>
</g>
<!-- api/index.js -->
<g id="node15" class="node">
<title>api/index.js</title>
<g id="a_node15"><a xlink:href="api/index.js" xlink:title="index.js">
<path fill="#ffffcc" stroke="black" d="M63.8,-130.3C63.8,-130.3 22.2,-130.3 22.2,-130.3 19.1,-130.3 16,-127.2 16,-124.1 16,-124.1 16,-117.9 16,-117.9 16,-114.8 19.1,-111.7 22.2,-111.7 22.2,-111.7 63.8,-111.7 63.8,-111.7 66.9,-111.7 70,-114.8 70,-117.9 70,-117.9 70,-124.1 70,-124.1 70,-127.2 66.9,-130.3 63.8,-130.3"/>
<text text-anchor="middle" x="43" y="-118.3" font-family="Helvetica,sans-Serif" font-size="9.00">index.js</text>
</a>
</g>
</g>
<!-- api/routes/index.js -->
<g id="node16" class="node">
<title>api/routes/index.js</title>
<g id="a_node16"><a xlink:href="api/routes/index.js" xlink:title="index.js">
<path fill="#ffffcc" stroke="black" d="M133.8,-134.3C133.8,-134.3 92.2,-134.3 92.2,-134.3 89.1,-134.3 86,-131.2 86,-128.1 86,-128.1 86,-121.9 86,-121.9 86,-118.8 89.1,-115.7 92.2,-115.7 92.2,-115.7 133.8,-115.7 133.8,-115.7 136.9,-115.7 140,-118.8 140,-121.9 140,-121.9 140,-128.1 140,-128.1 140,-131.2 136.9,-134.3 133.8,-134.3"/>
<text text-anchor="middle" x="113" y="-122.3" font-family="Helvetica,sans-Serif" font-size="9.00">index.js</text>
</a>
</g>
</g>
<!-- api/index.js&#45;&gt;api/routes/index.js -->
<g id="edge13" class="edge">
<title>api/index.js&#45;&gt;api/routes/index.js</title>
<path fill="none" stroke="#000000" stroke-width="2" stroke-opacity="0.200000" d="M70.1,-122.54C73.12,-122.71 76.23,-122.9 79.33,-123.08"/>
<polygon fill="#000000" fill-opacity="0.200000" stroke="#000000" stroke-width="2" stroke-opacity="0.200000" points="79.52,-125.19 85.64,-123.45 79.77,-121 79.52,-125.19"/>
</g>
<!-- node_modules/express -->
<g id="node17" class="node">
<title>node_modules/express</title>
<g id="a_node17"><a xlink:href="node_modules/express" xlink:title="express">
<polygon fill="#c40b0a" fill-opacity="0.101961" stroke="black" points="489.77,-34.3 437.84,-34.3 435.77,-32.23 435.77,-15.7 487.71,-15.7 489.77,-17.77 489.77,-34.3"/>
<polyline fill="none" stroke="black" points="487.71,-32.23 435.77,-32.23 "/>
<polyline fill="none" stroke="black" points="487.71,-32.23 487.71,-15.7 "/>
<polyline fill="none" stroke="black" points="487.71,-32.23 489.77,-34.3 "/>
<text text-anchor="middle" x="462.77" y="-22.3" font-family="Helvetica,sans-Serif" font-size="9.00" fill="#c40b0a">express</text>
</a>
</g>
</g>
<!-- api/index.js&#45;&gt;node_modules/express -->
<g id="edge14" class="edge">
<title>api/index.js&#45;&gt;node_modules/express</title>
<path fill="none" stroke="#000000" stroke-opacity="0.200000" d="M50.04,-111.59C67.52,-85.65 121,-15 185,-15 185,-15 185,-15 277.01,-15 330.46,-15 392.47,-19.22 429.35,-22.18"/>
<polygon fill="#000000" fill-opacity="0.200000" stroke="#000000" stroke-opacity="0.200000" points="429.34,-24.29 435.49,-22.68 429.68,-20.1 429.34,-24.29"/>
</g>
<!-- api/routes/index.js&#45;&gt;node_modules/express -->
<g id="edge19" class="edge">
<title>api/routes/index.js&#45;&gt;node_modules/express</title>
<path fill="none" stroke="#000000" stroke-opacity="0.200000" d="M129.43,-115.54C151.86,-102.22 195.13,-78.1 235.01,-65 302.29,-42.89 385.06,-32.23 429.65,-27.75"/>
<polygon fill="#000000" fill-opacity="0.200000" stroke="#000000" stroke-opacity="0.200000" points="429.92,-29.84 435.68,-27.16 429.51,-25.66 429.92,-29.84"/>
</g>
<!-- api/routes/channels.js -->
<g id="node18" class="node">
<title>api/routes/channels.js</title>
<g id="a_node18"><a xlink:href="api/routes/channels.js" xlink:title="channels.js">
<path fill="#ffffcc" stroke="black" d="M210.31,-134.3C210.31,-134.3 161.69,-134.3 161.69,-134.3 158.59,-134.3 155.49,-131.2 155.49,-128.1 155.49,-128.1 155.49,-121.9 155.49,-121.9 155.49,-118.8 158.59,-115.7 161.69,-115.7 161.69,-115.7 210.31,-115.7 210.31,-115.7 213.41,-115.7 216.51,-118.8 216.51,-121.9 216.51,-121.9 216.51,-128.1 216.51,-128.1 216.51,-131.2 213.41,-134.3 210.31,-134.3"/>
<text text-anchor="middle" x="186" y="-122.3" font-family="Helvetica,sans-Serif" font-size="9.00">channels.js</text>
</a>
</g>
</g>
<!-- api/routes/index.js&#45;&gt;api/routes/channels.js -->
<g id="edge17" class="edge">
<title>api/routes/index.js&#45;&gt;api/routes/channels.js</title>
<path fill="none" stroke="#000000" stroke-width="2" stroke-opacity="0.200000" d="M140.04,-125C142.95,-125 145.96,-125 148.97,-125"/>
<polygon fill="#000000" fill-opacity="0.200000" stroke="#000000" stroke-width="2" stroke-opacity="0.200000" points="149.13,-127.1 155.13,-125 149.13,-122.9 149.13,-127.1"/>
</g>
<!-- api/routes/messages.js -->
<g id="node19" class="node">
<title>api/routes/messages.js</title>
<g id="a_node19"><a xlink:href="api/routes/messages.js" xlink:title="messages.js">
<path fill="#ffffcc" stroke="black" d="M212.81,-165.3C212.81,-165.3 159.2,-165.3 159.2,-165.3 156.1,-165.3 153,-162.2 153,-159.1 153,-159.1 153,-152.9 153,-152.9 153,-149.8 156.1,-146.7 159.2,-146.7 159.2,-146.7 212.81,-146.7 212.81,-146.7 215.91,-146.7 219.01,-149.8 219.01,-152.9 219.01,-152.9 219.01,-159.1 219.01,-159.1 219.01,-162.2 215.91,-165.3 212.81,-165.3"/>
<text text-anchor="middle" x="186" y="-153.3" font-family="Helvetica,sans-Serif" font-size="9.00">messages.js</text>
</a>
</g>
</g>
<!-- api/routes/index.js&#45;&gt;api/routes/messages.js -->
<g id="edge18" class="edge">
<title>api/routes/index.js&#45;&gt;api/routes/messages.js</title>
<path fill="none" stroke="#000000" stroke-width="2" stroke-opacity="0.200000" d="M135.69,-134.47C142.71,-137.53 150.58,-140.97 157.94,-144.18"/>
<polygon fill="#000000" fill-opacity="0.200000" stroke="#000000" stroke-width="2" stroke-opacity="0.200000" points="157.11,-146.11 163.45,-146.59 158.79,-142.26 157.11,-146.11"/>
</g>
<!-- api/routes/channels.js&#45;&gt;api/controllers/channels.js -->
<g id="edge15" class="edge">
<title>api/routes/channels.js&#45;&gt;api/controllers/channels.js</title>
<path fill="none" stroke="#000000" stroke-width="2" stroke-opacity="0.200000" d="M216.8,-125C223.97,-125 231.7,-125 239.11,-125"/>
<polygon fill="#000000" fill-opacity="0.200000" stroke="#000000" stroke-width="2" stroke-opacity="0.200000" points="239.25,-127.1 245.25,-125 239.25,-122.9 239.25,-127.1"/>
</g>
<!-- api/routes/channels.js&#45;&gt;node_modules/express -->
<g id="edge16" class="edge">
<title>api/routes/channels.js&#45;&gt;node_modules/express</title>
<path fill="none" stroke="#000000" stroke-opacity="0.200000" d="M194.81,-115.69C203.56,-105.93 218.66,-90.92 235.01,-83 304.98,-49.08 340.32,-90.98 407.02,-51 411.9,-48.07 410.36,-44.27 415.02,-41 419.36,-37.95 424.33,-35.44 429.37,-33.39"/>
<polygon fill="#000000" fill-opacity="0.200000" stroke="#000000" stroke-opacity="0.200000" points="430.4,-35.24 435.29,-31.18 428.93,-31.31 430.4,-35.24"/>
</g>
<!-- api/routes/messages.js&#45;&gt;api/controllers/messages.js -->
<g id="edge20" class="edge">
<title>api/routes/messages.js&#45;&gt;api/controllers/messages.js</title>
<path fill="none" stroke="#000000" stroke-width="2" stroke-opacity="0.200000" d="M219.27,-156C224.89,-156 230.79,-156 236.56,-156"/>
<polygon fill="#000000" fill-opacity="0.200000" stroke="#000000" stroke-width="2" stroke-opacity="0.200000" points="236.74,-158.1 242.74,-156 236.74,-153.9 236.74,-158.1"/>
</g>
<!-- api/routes/messages.js&#45;&gt;node_modules/express -->
<g id="edge21" class="edge">
<title>api/routes/messages.js&#45;&gt;node_modules/express</title>
<path fill="none" stroke="#000000" stroke-opacity="0.200000" d="M219.08,-146.64C222.05,-144.81 224.77,-142.61 227.01,-140 237.38,-127.87 223.59,-116.15 235.01,-105 290.83,-50.5 350,-123.25 407.02,-70 416.79,-60.87 405.86,-50.74 415.02,-41 418.99,-36.78 424.13,-33.67 429.53,-31.38"/>
<polygon fill="#000000" fill-opacity="0.200000" stroke="#000000" stroke-opacity="0.200000" points="430.55,-33.25 435.46,-29.21 429.1,-29.3 430.55,-33.25"/>
</g>
</g>
</svg>
