<?xml version="1.0" encoding="UTF-8" standalone="no"?>
<!DOCTYPE svg PUBLIC "-//W3C//DTD SVG 1.1//EN"
 "http://www.w3.org/Graphics/SVG/1.1/DTD/svg11.dtd">
<!-- Generated by graphviz version 2.44.0 (20200408.0750)
 -->
<!-- Title: dependency&#45;cruiser output Pages: 1 -->
<svg width="523pt" height="184pt"
 viewBox="0.00 0.00 523.04 184.00" xmlns="http://www.w3.org/2000/svg" xmlns:xlink="http://www.w3.org/1999/xlink">
<g id="graph0" class="graph" transform="scale(1 1) rotate(0) translate(4 180)">
<title>dependency&#45;cruiser output</title>
<polygon fill="white" stroke="transparent" points="-4,4 -4,-180 519.04,-180 519.04,4 -4,4"/>
<g id="clust1" class="cluster">
<title>cluster_client</title>
<path fill="#ffffff" stroke="black" stroke-width="2" d="M20,-8C20,-8 495.04,-8 495.04,-8 501.04,-8 507.04,-14 507.04,-20 507.04,-20 507.04,-156 507.04,-156 507.04,-162 501.04,-168 495.04,-168 495.04,-168 20,-168 20,-168 14,-168 8,-162 8,-156 8,-156 8,-20 8,-20 8,-14 14,-8 20,-8"/>
<text text-anchor="middle" x="257.52" y="-155.9" font-family="Helvetica,sans-Serif" font-weight="bold" font-size="9.00">client</text>
</g>
<g id="clust2" class="cluster">
<title>cluster_client/src</title>
<path fill="#ffffff" stroke="black" stroke-width="2" d="M28,-16C28,-16 487.04,-16 487.04,-16 493.04,-16 499.04,-22 499.04,-28 499.04,-28 499.04,-129 499.04,-129 499.04,-135 493.04,-141 487.04,-141 487.04,-141 28,-141 28,-141 22,-141 16,-135 16,-129 16,-129 16,-28 16,-28 16,-22 22,-16 28,-16"/>
<text text-anchor="middle" x="257.52" y="-128.9" font-family="Helvetica,sans-Serif" font-weight="bold" font-size="9.00">src</text>
</g>
<g id="clust3" class="cluster">
<title>cluster_client/src/data&#45;access</title>
<path fill="#ffffff" stroke="black" stroke-width="2" d="M339.04,-26C339.04,-26 479.04,-26 479.04,-26 485.04,-26 491.04,-32 491.04,-38 491.04,-38 491.04,-102 491.04,-102 491.04,-108 485.04,-114 479.04,-114 479.04,-114 339.04,-114 339.04,-114 333.04,-114 327.04,-108 327.04,-102 327.04,-102 327.04,-38 327.04,-38 327.04,-32 333.04,-26 339.04,-26"/>
<text text-anchor="middle" x="409.04" y="-101.9" font-family="Helvetica,sans-Serif" font-weight="bold" font-size="9.00">data&#45;access</text>
</g>
<g id="clust4" class="cluster">
<title>cluster_client/src/data&#45;access/api&#45;calls</title>
<path fill="#ffffff" stroke="black" stroke-width="2" d="M347.04,-34C347.04,-34 393.04,-34 393.04,-34 399.04,-34 405.04,-40 405.04,-46 405.04,-46 405.04,-75 405.04,-75 405.04,-81 399.04,-87 393.04,-87 393.04,-87 347.04,-87 347.04,-87 341.04,-87 335.04,-81 335.04,-75 335.04,-75 335.04,-46 335.04,-46 335.04,-40 341.04,-34 347.04,-34"/>
<text text-anchor="middle" x="370.04" y="-74.9" font-family="Helvetica,sans-Serif" font-weight="bold" font-size="9.00">api&#45;calls</text>
</g>
<g id="clust5" class="cluster">
<title>cluster_client/src/data&#45;access/state</title>
<path fill="#ffffff" stroke="black" stroke-width="2" d="M425.04,-34C425.04,-34 471.04,-34 471.04,-34 477.04,-34 483.04,-40 483.04,-46 483.04,-46 483.04,-75 483.04,-75 483.04,-81 477.04,-87 471.04,-87 471.04,-87 425.04,-87 425.04,-87 419.04,-87 413.04,-81 413.04,-75 413.04,-75 413.04,-46 413.04,-46 413.04,-40 419.04,-34 425.04,-34"/>
<text text-anchor="middle" x="448.04" y="-74.9" font-family="Helvetica,sans-Serif" font-weight="bold" font-size="9.00">state</text>
</g>
<g id="clust6" class="cluster">
<title>cluster_client/src/presentation</title>
<path fill="#ffffff" stroke="black" stroke-width="2" d="M98,-24C98,-24 307.04,-24 307.04,-24 313.04,-24 319.04,-30 319.04,-36 319.04,-36 319.04,-100 319.04,-100 319.04,-106 313.04,-112 307.04,-112 307.04,-112 98,-112 98,-112 92,-112 86,-106 86,-100 86,-100 86,-36 86,-36 86,-30 92,-24 98,-24"/>
<text text-anchor="middle" x="202.52" y="-99.9" font-family="Helvetica,sans-Serif" font-weight="bold" font-size="9.00">presentation</text>
</g>
<g id="clust7" class="cluster">
<title>cluster_client/src/presentation/components</title>
<path fill="#ffffff" stroke="black" stroke-width="2" d="M106,-32C106,-32 215.53,-32 215.53,-32 221.53,-32 227.53,-38 227.53,-44 227.53,-44 227.53,-73 227.53,-73 227.53,-79 221.53,-85 215.53,-85 215.53,-85 106,-85 106,-85 100,-85 94,-79 94,-73 94,-73 94,-44 94,-44 94,-38 100,-32 106,-32"/>
<text text-anchor="middle" x="160.76" y="-72.9" font-family="Helvetica,sans-Serif" font-weight="bold" font-size="9.00">components</text>
</g>
<g id="clust8" class="cluster">
<title>cluster_client/src/presentation/handlers</title>
<path fill="#ffffff" stroke="black" stroke-width="2" d="M247.53,-32C247.53,-32 299.04,-32 299.04,-32 305.04,-32 311.04,-38 311.04,-44 311.04,-44 311.04,-73 311.04,-73 311.04,-79 305.04,-85 299.04,-85 299.04,-85 247.53,-85 247.53,-85 241.53,-85 235.53,-79 235.53,-73 235.53,-73 235.53,-44 235.53,-44 235.53,-38 241.53,-32 247.53,-32"/>
<text text-anchor="middle" x="273.28" y="-72.9" font-family="Helvetica,sans-Serif" font-weight="bold" font-size="9.00">handlers</text>
</g>
<!-- client/src/data&#45;access/api&#45;calls/calls.js -->
<g id="node1" class="node">
<title>client/src/data&#45;access/api&#45;calls/calls.js</title>
<g id="a_node1"><a xlink:href="client/src/data-access/api-calls/calls.js" xlink:title="calls.js">
<path fill="#ffffcc" stroke="black" d="M390.84,-60.3C390.84,-60.3 349.24,-60.3 349.24,-60.3 346.14,-60.3 343.04,-57.2 343.04,-54.1 343.04,-54.1 343.04,-47.9 343.04,-47.9 343.04,-44.8 346.14,-41.7 349.24,-41.7 349.24,-41.7 390.84,-41.7 390.84,-41.7 393.94,-41.7 397.04,-44.8 397.04,-47.9 397.04,-47.9 397.04,-54.1 397.04,-54.1 397.04,-57.2 393.94,-60.3 390.84,-60.3"/>
<text text-anchor="middle" x="370.04" y="-48.3" font-family="Helvetica,sans-Serif" font-size="9.00">calls.js</text>
</a>
</g>
</g>
<!-- client/src/data&#45;access/state/state.js -->
<g id="node2" class="node">
<title>client/src/data&#45;access/state/state.js</title>
<g id="a_node2"><a xlink:href="client/src/data-access/state/state.js" xlink:title="state.js">
<path fill="#ffffcc" stroke="black" d="M468.84,-60.3C468.84,-60.3 427.24,-60.3 427.24,-60.3 424.14,-60.3 421.04,-57.2 421.04,-54.1 421.04,-54.1 421.04,-47.9 421.04,-47.9 421.04,-44.8 424.14,-41.7 427.24,-41.7 427.24,-41.7 468.84,-41.7 468.84,-41.7 471.94,-41.7 475.04,-44.8 475.04,-47.9 475.04,-47.9 475.04,-54.1 475.04,-54.1 475.04,-57.2 471.94,-60.3 468.84,-60.3"/>
<text text-anchor="middle" x="448.04" y="-48.3" font-family="Helvetica,sans-Serif" font-size="9.00">state.js</text>
</a>
</g>
</g>
<!-- client/src/data&#45;access/api&#45;calls/calls.js&#45;&gt;client/src/data&#45;access/state/state.js -->
<g id="edge1" class="edge">
<title>client/src/data&#45;access/api&#45;calls/calls.js&#45;&gt;client/src/data&#45;access/state/state.js</title>
<path fill="none" stroke="#000000" stroke-width="2" stroke-opacity="0.200000" d="M397.19,-51C402.8,-51 408.8,-51 414.62,-51"/>
<polygon fill="#000000" fill-opacity="0.200000" stroke="#000000" stroke-width="2" stroke-opacity="0.200000" points="414.83,-53.1 420.83,-51 414.83,-48.9 414.83,-53.1"/>
</g>
<!-- client/src/index.js -->
<g id="node3" class="node">
<title>client/src/index.js</title>
<g id="a_node3"><a xlink:href="client/src/index.js" xlink:title="index.js">
<path fill="#ffffcc" stroke="black" d="M71.8,-58.3C71.8,-58.3 30.2,-58.3 30.2,-58.3 27.1,-58.3 24,-55.2 24,-52.1 24,-52.1 24,-45.9 24,-45.9 24,-42.8 27.1,-39.7 30.2,-39.7 30.2,-39.7 71.8,-39.7 71.8,-39.7 74.9,-39.7 78,-42.8 78,-45.9 78,-45.9 78,-52.1 78,-52.1 78,-55.2 74.9,-58.3 71.8,-58.3"/>
<text text-anchor="middle" x="51" y="-46.3" font-family="Helvetica,sans-Serif" font-size="9.00">index.js</text>
</a>
</g>
</g>
<!-- client/src/presentation/components/home&#45;page.component.js -->
<g id="node4" class="node">
<title>client/src/presentation/components/home&#45;page.component.js</title>
<g id="a_node4"><a xlink:href="client/src/presentation/components/home-page.component.js" xlink:title="home&#45;page.component.js">
<path fill="#ffffcc" stroke="black" d="M213.09,-58.3C213.09,-58.3 108.44,-58.3 108.44,-58.3 105.33,-58.3 102.23,-55.2 102.23,-52.1 102.23,-52.1 102.23,-45.9 102.23,-45.9 102.23,-42.8 105.33,-39.7 108.44,-39.7 108.44,-39.7 213.09,-39.7 213.09,-39.7 216.19,-39.7 219.29,-42.8 219.29,-45.9 219.29,-45.9 219.29,-52.1 219.29,-52.1 219.29,-55.2 216.19,-58.3 213.09,-58.3"/>
<text text-anchor="middle" x="160.76" y="-46.3" font-family="Helvetica,sans-Serif" font-size="9.00">home&#45;page.component.js</text>
</a>
</g>
</g>
<!-- client/src/index.js&#45;&gt;client/src/presentation/components/home&#45;page.component.js -->
<g id="edge2" class="edge">
<title>client/src/index.js&#45;&gt;client/src/presentation/components/home&#45;page.component.js</title>
<path fill="none" stroke="#000000" stroke-width="2" stroke-opacity="0.200000" d="M78.09,-49C83.6,-49 89.65,-49 95.88,-49"/>
<polygon fill="#000000" fill-opacity="0.200000" stroke="#000000" stroke-width="2" stroke-opacity="0.200000" points="96.16,-51.1 102.16,-49 96.16,-46.9 96.16,-51.1"/>
</g>
<!-- client/src/presentation/components/home&#45;page.component.js&#45;&gt;client/src/data&#45;access/api&#45;calls/calls.js -->
<g id="edge3" class="edge">
<title>client/src/presentation/components/home&#45;page.component.js&#45;&gt;client/src/data&#45;access/api&#45;calls/calls.js</title>
<path fill="none" stroke="#000000" stroke-width="2" stroke-opacity="0.200000" d="M174.82,-58.45C188.97,-68.06 212.61,-82.31 235.53,-88 271.55,-96.94 283.79,-99.62 319.04,-88 333.01,-83.39 346.27,-73.21 355.62,-64.69"/>
<polygon fill="#000000" fill-opacity="0.200000" stroke="#000000" stroke-width="2" stroke-opacity="0.200000" points="357.22,-66.07 360.14,-60.42 354.33,-63.02 357.22,-66.07"/>
</g>
<!-- client/src/presentation/components/home&#45;page.component.js&#45;&gt;client/src/data&#45;access/state/state.js -->
<g id="edge4" class="edge">
<title>client/src/presentation/components/home&#45;page.component.js&#45;&gt;client/src/data&#45;access/state/state.js</title>
<path fill="none" stroke="#000000" stroke-width="2" stroke-opacity="0.200000" d="M172.79,-58.7C186.43,-69.97 210.86,-87.94 235.53,-95 307.99,-115.74 335.71,-119.57 405.04,-90 417.55,-84.66 428.67,-73.91 436.32,-65.04"/>
<polygon fill="#000000" fill-opacity="0.200000" stroke="#000000" stroke-width="2" stroke-opacity="0.200000" points="437.99,-66.32 440.2,-60.35 434.76,-63.64 437.99,-66.32"/>
</g>
<!-- client/src/presentation/handlers/handlers.js -->
<g id="node5" class="node">
<title>client/src/presentation/handlers/handlers.js</title>
<g id="a_node5"><a xlink:href="client/src/presentation/handlers/handlers.js" xlink:title="handlers.js">
<path fill="#ffffcc" stroke="black" d="M296.59,-58.3C296.59,-58.3 249.97,-58.3 249.97,-58.3 246.87,-58.3 243.77,-55.2 243.77,-52.1 243.77,-52.1 243.77,-45.9 243.77,-45.9 243.77,-42.8 246.87,-39.7 249.97,-39.7 249.97,-39.7 296.59,-39.7 296.59,-39.7 299.69,-39.7 302.79,-42.8 302.79,-45.9 302.79,-45.9 302.79,-52.1 302.79,-52.1 302.79,-55.2 299.69,-58.3 296.59,-58.3"/>
<text text-anchor="middle" x="273.28" y="-46.3" font-family="Helvetica,sans-Serif" font-size="9.00">handlers.js</text>
</a>
</g>
</g>
<!-- client/src/presentation/components/home&#45;page.component.js&#45;&gt;client/src/presentation/handlers/handlers.js -->
<g id="edge5" class="edge">
<title>client/src/presentation/components/home&#45;page.component.js&#45;&gt;client/src/presentation/handlers/handlers.js</title>
<path fill="none" stroke="#000000" stroke-width="2" stroke-opacity="0.200000" d="M219.61,-49C225.75,-49 231.84,-49 237.59,-49"/>
<polygon fill="#000000" fill-opacity="0.200000" stroke="#000000" stroke-width="2" stroke-opacity="0.200000" points="237.68,-51.1 243.68,-49 237.68,-46.9 237.68,-51.1"/>
</g>
<!-- client/src/presentation/handlers/handlers.js&#45;&gt;client/src/data&#45;access/api&#45;calls/calls.js -->
<g id="edge6" class="edge">
<title>client/src/presentation/handlers/handlers.js&#45;&gt;client/src/data&#45;access/api&#45;calls/calls.js</title>
<path fill="none" stroke="#000000" stroke-width="2" stroke-opacity="0.200000" d="M302.97,-49.61C313.62,-49.83 325.78,-50.09 336.74,-50.32"/>
<polygon fill="#000000" fill-opacity="0.200000" stroke="#000000" stroke-width="2" stroke-opacity="0.200000" points="336.98,-52.42 343.03,-50.45 337.07,-48.22 336.98,-52.42"/>
</g>
<!-- client/src/presentation/handlers/handlers.js&#45;&gt;client/src/data&#45;access/state/state.js -->
<g id="edge7" class="edge">
<title>client/src/presentation/handlers/handlers.js&#45;&gt;client/src/data&#45;access/state/state.js</title>
<path fill="none" stroke="#000000" stroke-width="2" stroke-opacity="0.200000" d="M296.45,-39.62C305.73,-36.18 316.73,-32.71 327.04,-31 361.24,-25.33 371.22,-23.36 405.04,-31 412.15,-32.61 419.48,-35.57 425.98,-38.73"/>
<polygon fill="#000000" fill-opacity="0.200000" stroke="#000000" stroke-width="2" stroke-opacity="0.200000" points="425.39,-40.79 431.68,-41.66 427.3,-37.05 425.39,-40.79"/>
</g>
</g>
</svg>
