<?xml version="1.0" encoding="UTF-8" standalone="no"?>
<!DOCTYPE svg PUBLIC "-//W3C//DTD SVG 1.1//EN"
 "http://www.w3.org/Graphics/SVG/1.1/DTD/svg11.dtd">
<!-- Generated by graphviz version 2.44.0 (20200408.0750)
 -->
<!-- Title: dependency&#45;cruiser output Pages: 1 -->
<svg width="158pt" height="311pt"
 viewBox="0.00 0.00 158.01 311.40" xmlns="http://www.w3.org/2000/svg" xmlns:xlink="http://www.w3.org/1999/xlink">
<g id="graph0" class="graph" transform="scale(1 1) rotate(0) translate(4 307.4)">
<title>dependency&#45;cruiser output</title>
<polygon fill="white" stroke="transparent" points="-4,4 -4,-307.4 154.01,-307.4 154.01,4 -4,4"/>
<g id="clust1" class="cluster">
<title>cluster_api</title>
<path fill="#ffffff" stroke="black" stroke-width="2" d="M79,-162C79,-162 125,-162 125,-162 131,-162 137,-168 137,-174 137,-174 137,-203 137,-203 137,-209 131,-215 125,-215 125,-215 79,-215 79,-215 73,-215 67,-209 67,-203 67,-203 67,-174 67,-174 67,-168 73,-162 79,-162"/>
<text text-anchor="middle" x="102" y="-202.9" font-family="Helvetica,sans-Serif" font-weight="bold" font-size="9.00">api</text>
</g>
<g id="clust2" class="cluster">
<title>cluster_node_modules</title>
<path fill="#ffffff" stroke="black" stroke-width="2" d="M74,-8C74,-8 130.01,-8 130.01,-8 136.01,-8 142.01,-14 142.01,-20 142.01,-20 142.01,-142 142.01,-142 142.01,-148 136.01,-154 130.01,-154 130.01,-154 74,-154 74,-154 68,-154 62,-148 62,-142 62,-142 62,-20 62,-20 62,-14 68,-8 74,-8"/>
<text text-anchor="middle" x="102" y="-141.9" font-family="Helvetica,sans-Serif" font-weight="bold" font-size="9.00">node_modules</text>
</g>
<!-- ./config -->
<g id="node1" class="node">
<title>./config</title>
<path fill="#ffffcc" stroke="red" d="M122.8,-303.3C122.8,-303.3 81.2,-303.3 81.2,-303.3 78.1,-303.3 75,-300.2 75,-297.1 75,-297.1 75,-290.9 75,-290.9 75,-287.8 78.1,-284.7 81.2,-284.7 81.2,-284.7 122.8,-284.7 122.8,-284.7 125.9,-284.7 129,-287.8 129,-290.9 129,-290.9 129,-297.1 129,-297.1 129,-300.2 125.9,-303.3 122.8,-303.3"/>
<text text-anchor="middle" x="102" y="-291.3" font-family="Helvetica,sans-Serif" font-size="9.00" fill="red">config</text>
</g>
<!-- api/index.js -->
<g id="node2" class="node">
<title>api/index.js</title>
<g id="a_node2"><a xlink:href="api/index.js" xlink:title="index.js">
<path fill="#ffffcc" stroke="black" d="M122.8,-188.3C122.8,-188.3 81.2,-188.3 81.2,-188.3 78.1,-188.3 75,-185.2 75,-182.1 75,-182.1 75,-175.9 75,-175.9 75,-172.8 78.1,-169.7 81.2,-169.7 81.2,-169.7 122.8,-169.7 122.8,-169.7 125.9,-169.7 129,-172.8 129,-175.9 129,-175.9 129,-182.1 129,-182.1 129,-185.2 125.9,-188.3 122.8,-188.3"/>
<text text-anchor="middle" x="102" y="-176.3" font-family="Helvetica,sans-Serif" font-size="9.00">index.js</text>
</a>
</g>
</g>
<!-- fs -->
<g id="node3" class="node">
<title>fs</title>
<path fill="#ffffcc" stroke="grey" d="M122.8,-272.3C122.8,-272.3 81.2,-272.3 81.2,-272.3 78.1,-272.3 75,-269.2 75,-266.1 75,-266.1 75,-259.9 75,-259.9 75,-256.8 78.1,-253.7 81.2,-253.7 81.2,-253.7 122.8,-253.7 122.8,-253.7 125.9,-253.7 129,-256.8 129,-259.9 129,-259.9 129,-266.1 129,-266.1 129,-269.2 125.9,-272.3 122.8,-272.3"/>
<text text-anchor="middle" x="102" y="-260.3" font-family="Helvetica,sans-Serif" font-size="9.00" fill="grey">fs</text>
</g>
<!-- index.js -->
<g id="node4" class="node">
<title>index.js</title>
<g id="a_node4"><a xlink:href="index.js" xlink:title="index.js">
<path fill="#ffffcc" stroke="black" d="M47.8,-157.3C47.8,-157.3 6.2,-157.3 6.2,-157.3 3.1,-157.3 0,-154.2 0,-151.1 0,-151.1 0,-144.9 0,-144.9 0,-141.8 3.1,-138.7 6.2,-138.7 6.2,-138.7 47.8,-138.7 47.8,-138.7 50.9,-138.7 54,-141.8 54,-144.9 54,-144.9 54,-151.1 54,-151.1 54,-154.2 50.9,-157.3 47.8,-157.3"/>
<text text-anchor="middle" x="27" y="-145.3" font-family="Helvetica,sans-Serif" font-size="9.00">index.js</text>
</a>
</g>
</g>
<!-- index.js&#45;&gt;./config -->
<g id="edge2" class="edge">
<title>index.js&#45;&gt;./config</title>
<path fill="none" stroke="#000000" stroke-width="2" stroke-opacity="0.200000" d="M27.76,-157.48C27.68,-180.9 30.67,-242.18 62,-278 64.17,-280.48 66.78,-282.58 69.61,-284.36"/>
<polygon fill="#000000" fill-opacity="0.200000" stroke="#000000" stroke-width="2" stroke-opacity="0.200000" points="68.62,-286.21 74.9,-287.23 70.63,-282.52 68.62,-286.21"/>
</g>
<!-- index.js&#45;&gt;api/index.js -->
<g id="edge1" class="edge">
<title>index.js&#45;&gt;api/index.js</title>
<path fill="none" stroke="#000000" stroke-width="2" stroke-opacity="0.200000" d="M50.3,-157.47C57.58,-160.56 65.76,-164.04 73.39,-167.27"/>
<polygon fill="#000000" fill-opacity="0.200000" stroke="#000000" stroke-width="2" stroke-opacity="0.200000" points="72.75,-169.28 79.09,-169.7 74.39,-165.42 72.75,-169.28"/>
</g>
<!-- index.js&#45;&gt;fs -->
<g id="edge6" class="edge">
<title>index.js&#45;&gt;fs</title>
<path fill="none" stroke="#000000" stroke-dasharray="5,2" stroke-opacity="0.200000" d="M28.7,-157.5C30.61,-176.82 37.56,-221.09 62,-247 64.09,-249.21 66.52,-251.13 69.14,-252.79"/>
<polygon fill="#000000" fill-opacity="0.200000" stroke="#000000" stroke-opacity="0.200000" points="68.45,-254.8 74.72,-255.84 70.46,-251.12 68.45,-254.8"/>
</g>
<!-- node_modules/body&#45;parser -->
<g id="node5" class="node">
<title>node_modules/body&#45;parser</title>
<g id="a_node5"><a xlink:href="node_modules/body-parser" xlink:title="body&#45;parser">
<polygon fill="#c40b0a" fill-opacity="0.101961" stroke="black" points="134.01,-127.3 72.06,-127.3 70,-125.23 70,-108.7 131.94,-108.7 134.01,-110.77 134.01,-127.3"/>
<polyline fill="none" stroke="black" points="131.94,-125.23 70,-125.23 "/>
<polyline fill="none" stroke="black" points="131.94,-125.23 131.94,-108.7 "/>
<polyline fill="none" stroke="black" points="131.94,-125.23 134.01,-127.3 "/>
<text text-anchor="middle" x="102" y="-115.3" font-family="Helvetica,sans-Serif" font-size="9.00" fill="#c40b0a">body&#45;parser</text>
</a>
</g>
</g>
<!-- index.js&#45;&gt;node_modules/body&#45;parser -->
<g id="edge3" class="edge">
<title>index.js&#45;&gt;node_modules/body&#45;parser</title>
<path fill="none" stroke="#000000" stroke-opacity="0.200000" d="M50.7,-138.67C57.5,-135.88 65.05,-132.77 72.19,-129.84"/>
<polygon fill="#000000" fill-opacity="0.200000" stroke="#000000" stroke-opacity="0.200000" points="73.32,-131.65 78.07,-127.43 71.72,-127.76 73.32,-131.65"/>
</g>
<!-- node_modules/cors -->
<g id="node6" class="node">
<title>node_modules/cors</title>
<g id="a_node6"><a xlink:href="node_modules/cors" xlink:title="cors">
<polygon fill="#c40b0a" fill-opacity="0.101961" stroke="black" points="129,-96.3 77.07,-96.3 75,-94.23 75,-77.7 126.94,-77.7 129,-79.77 129,-96.3"/>
<polyline fill="none" stroke="black" points="126.94,-94.23 75,-94.23 "/>
<polyline fill="none" stroke="black" points="126.94,-94.23 126.94,-77.7 "/>
<polyline fill="none" stroke="black" points="126.94,-94.23 129,-96.3 "/>
<text text-anchor="middle" x="102" y="-84.3" font-family="Helvetica,sans-Serif" font-size="9.00" fill="#c40b0a">cors</text>
</a>
</g>
</g>
<!-- index.js&#45;&gt;node_modules/cors -->
<g id="edge4" class="edge">
<title>index.js&#45;&gt;node_modules/cors</title>
<path fill="none" stroke="#000000" stroke-opacity="0.200000" d="M33.09,-138.54C38.9,-128.51 49.28,-112.8 62,-103 64.27,-101.25 66.76,-99.66 69.35,-98.22"/>
<polygon fill="#000000" fill-opacity="0.200000" stroke="#000000" stroke-opacity="0.200000" points="70.36,-100.07 74.76,-95.49 68.46,-96.32 70.36,-100.07"/>
</g>
<!-- node_modules/express -->
<g id="node7" class="node">
<title>node_modules/express</title>
<g id="a_node7"><a xlink:href="node_modules/express" xlink:title="express">
<polygon fill="#c40b0a" fill-opacity="0.101961" stroke="black" points="129,-65.3 77.07,-65.3 75,-63.23 75,-46.7 126.94,-46.7 129,-48.77 129,-65.3"/>
<polyline fill="none" stroke="black" points="126.94,-63.23 75,-63.23 "/>
<polyline fill="none" stroke="black" points="126.94,-63.23 126.94,-46.7 "/>
<polyline fill="none" stroke="black" points="126.94,-63.23 129,-65.3 "/>
<text text-anchor="middle" x="102" y="-53.3" font-family="Helvetica,sans-Serif" font-size="9.00" fill="#c40b0a">express</text>
</a>
</g>
</g>
<!-- index.js&#45;&gt;node_modules/express -->
<g id="edge5" class="edge">
<title>index.js&#45;&gt;node_modules/express</title>
<path fill="none" stroke="#000000" stroke-opacity="0.200000" d="M29.85,-138.51C33.39,-122.69 42.59,-90.81 62,-72 64.18,-69.88 66.69,-68.03 69.35,-66.42"/>
<polygon fill="#000000" fill-opacity="0.200000" stroke="#000000" stroke-opacity="0.200000" points="70.67,-68.09 74.98,-63.42 68.7,-64.38 70.67,-68.09"/>
</g>
<!-- node_modules/morgan -->
<g id="node8" class="node">
<title>node_modules/morgan</title>
<g id="a_node8"><a xlink:href="node_modules/morgan" xlink:title="morgan">
<polygon fill="#c40b0a" fill-opacity="0.101961" stroke="black" points="129,-34.3 77.07,-34.3 75,-32.23 75,-15.7 126.94,-15.7 129,-17.77 129,-34.3"/>
<polyline fill="none" stroke="black" points="126.94,-32.23 75,-32.23 "/>
<polyline fill="none" stroke="black" points="126.94,-32.23 126.94,-15.7 "/>
<polyline fill="none" stroke="black" points="126.94,-32.23 129,-34.3 "/>
<text text-anchor="middle" x="102" y="-22.3" font-family="Helvetica,sans-Serif" font-size="9.00" fill="#c40b0a">morgan</text>
</a>
</g>
</g>
<!-- index.js&#45;&gt;node_modules/morgan -->
<g id="edge7" class="edge">
<title>index.js&#45;&gt;node_modules/morgan</title>
<path fill="none" stroke="#000000" stroke-opacity="0.200000" d="M28.4,-138.69C29.75,-118.36 35.71,-69.52 62,-41 64.06,-38.76 66.48,-36.83 69.09,-35.16"/>
<polygon fill="#000000" fill-opacity="0.200000" stroke="#000000" stroke-opacity="0.200000" points="70.41,-36.83 74.65,-32.1 68.38,-33.15 70.41,-36.83"/>
</g>
<!-- path -->
<g id="node9" class="node">
<title>path</title>
<path fill="#ffffcc" stroke="grey" d="M122.8,-241.3C122.8,-241.3 81.2,-241.3 81.2,-241.3 78.1,-241.3 75,-238.2 75,-235.1 75,-235.1 75,-228.9 75,-228.9 75,-225.8 78.1,-222.7 81.2,-222.7 81.2,-222.7 122.8,-222.7 122.8,-222.7 125.9,-222.7 129,-225.8 129,-228.9 129,-228.9 129,-235.1 129,-235.1 129,-238.2 125.9,-241.3 122.8,-241.3"/>
<text text-anchor="middle" x="102" y="-229.3" font-family="Helvetica,sans-Serif" font-size="9.00" fill="grey">path</text>
</g>
<!-- index.js&#45;&gt;path -->
<g id="edge8" class="edge">
<title>index.js&#45;&gt;path</title>
<path fill="none" stroke="#000000" stroke-dasharray="5,2" stroke-opacity="0.200000" d="M30.17,-157.56C34.03,-172.5 43.5,-201.39 62,-218 64.16,-219.94 66.61,-221.62 69.2,-223.07"/>
<polygon fill="#000000" fill-opacity="0.200000" stroke="#000000" stroke-opacity="0.200000" points="68.37,-224.99 74.68,-225.73 70.2,-221.22 68.37,-224.99"/>
</g>
</g>
</svg>
